<?xml version="1.0" encoding="UTF-8"?>
<svg id="Layer_1" xmlns="http://www.w3.org/2000/svg" xmlns:xlink="http://www.w3.org/1999/xlink" version="1.1" viewBox="0 0 1000 700">
  <!-- Generator: Adobe Illustrator 29.2.1, SVG Export Plug-In . SVG Version: 2.1.0 Build 116)  -->
  <defs>
    <style>
      .st0, .st1 {
        fill: none;
      }

      .st2 {
        fill: url(#linear-gradient2);
      }

      .st3 {
        fill: url(#linear-gradient1);
      }

      .st4 {
        fill: url(#linear-gradient3);
      }

      .st5 {
        font-size: 14px;
      }

      .st5, .st6, .st7 {
        fill: #2a3f5f;
        font-family: Verdana, Verdana;
        isolation: isolate;
      }

      .st6 {
        font-size: 17px;
      }

      .st8 {
        fill: #80ddff;
      }

      .st8, .st9, .st10, .st11 {
        stroke: #444;
      }

      .st1 {
        stroke: #fff;
        stroke-miterlimit: 2;
      }

      .st12 {
        fill: url(#linear-gradient);
      }

      .st13 {
        fill: #808ba4;
      }

      .st14 {
        clip-path: url(#clippath-1);
      }

      .st15 {
        fill: #fff;
      }

      .st9 {
        fill: #bb80ff;
      }

      .st10 {
        fill: #ffee80;
      }

      .st11 {
        fill: #4d8599;
      }

      .st16 {
        fill: #e5ecf6;
      }

      .st7 {
        font-size: 12px;
      }

      .st17 {
        fill-opacity: 0;
      }

      .st18 {
        clip-path: url(#clippath);
      }
    </style>
    <clipPath id="clippath">
      <rect class="st0" x="80" y="141.1" width="837" height="437.8"/>
    </clipPath>
    <clipPath id="clippath-1">
      <rect class="st0" x="933.7" y="100" width="54" height="105"/>
    </clipPath>
    <linearGradient id="linear-gradient" x1="-419.7" y1="874.8" x2="-420.7" y2="874.8" gradientTransform="translate(5996.7 10629.7) scale(12 -12)" gradientUnits="userSpaceOnUse">
      <stop offset="0" stop-color="#80ddff"/>
      <stop offset="1" stop-color="#80ddff"/>
    </linearGradient>
    <linearGradient id="linear-gradient1" x1="-419.7" y1="874.8" x2="-420.7" y2="874.8" gradientTransform="translate(5996.7 10648.7) scale(12 -12)" gradientUnits="userSpaceOnUse">
      <stop offset="0" stop-color="#bb80ff"/>
      <stop offset="1" stop-color="#bb80ff"/>
    </linearGradient>
    <linearGradient id="linear-gradient2" x1="-419.7" y1="874.7" x2="-420.7" y2="874.7" gradientTransform="translate(5996.7 10667.7) scale(12 -12)" gradientUnits="userSpaceOnUse">
      <stop offset="0" stop-color="#ffee80"/>
      <stop offset="1" stop-color="#ffee80"/>
    </linearGradient>
    <linearGradient id="linear-gradient3" x1="-419.7" y1="874.8" x2="-420.7" y2="874.8" gradientTransform="translate(5996.7 10686.7) scale(12 -12)" gradientUnits="userSpaceOnUse">
      <stop offset="0" stop-color="#4d8599"/>
      <stop offset="1" stop-color="#4d8599"/>
    </linearGradient>
  </defs>
  <rect class="st15" width="1000" height="700"/>
  <g class="st18">
    <g>
      <rect class="st15" x="80" y="141.1" width="837" height="437.8"/>
      <path class="st16" d="M379.6,552.3l2.8,1.3,2.4,2.2,4,5.5-.4,1-5.9,3.4-4.9,2.5-2.2,2.7-3.8-2.3.4-4.5-2.6-5.8.8-1.8,2.7-2.6-1.2-3.1,1-1.5,1.2.3,5.7,2.7ZM370.5,541.4l-1.2,2-5.1,1.1-2.6-3.4-1.8-1.2-.2-1.1,1.6-1.4,5.3,1.5,3.9,2.4ZM359.1,534.9l-.6,1.8-8-.5,1.2-1.9,7.4.7ZM339.9,526.2l1.4,1.1,4.3,5.3-.8.9-1.2-.3-5.3-.6-1.7-3.7-.6-.5,3.9-2.3ZM319.9,518.2l.4,3.7-1.8,1.6-5-3,.8-1.1,2.2-1.6,3.5.4ZM224.3,548l2,.4,1.3,1.7-2.6,2.7-3,2.2-1.5-1.4-.4-2.6,2.7-2,1.6-.9ZM187.7,531.1l2.1.9v2.2c-.1,0-2,.6-2,.6l-1.6-1.4-1.4-1.8,2.9-.4ZM178.6,509.4l1.2,1.4,1.6-.2,1.6,1.9,2.2,1.3-.3.6-2.2.7-1.6-1.7-.7-1.2-2.2-.2-.5-.7.7-2ZM821.6,222.3l-9.7,8.6-10.4,7.9-3.4,10.9-.9,4.1.9,3.3,1.2,4.9,6.1,7.2,4.9-.9-2.9-5.3,4.5,2.4.2,4.8-3.1,2.2-4,2.5-5.5,1.2-7.9,4.9-4.9,2.1-6.6,2.5-7.9,6.5-.7.4,4.8-2,11.6-5.2,4.2,2-15.2,8.8-7.5,1.9v-.6s0-1.5,0-1.5l-2.5,5.1v.2c-.1,0,3.6-.2,3.6-.2v4.9s0,7.1,0,7.1l-2.7,6.7-3.3,7.4-1.7-3.9-2.8-.2-1.9-1.3-2.8-1.8h-.2s2.7,4.7,2.7,4.7l1.9,3.3,3.5,2.2,1.6,5.8-2.6,7.1-4.1,14.2-1.3-.4,1.5-11.6-7.7-4.7-4.2-12.8-1,7.2,4.8,9.6-8.3-.8h-.3c0,0,9.5,3.4,9.5,3.4l3.6,14.9,3.8.5,2.5,5.1,5.2,15.5-5.6,13.4-7.4,4.5-4.8,2.9-1.8,3-4.9,8-6.2,2.3-1.3,1.5-4.3,5.5-.9,5.6-4.9,5.1-7.9,7.9-4.9,6.9-1.3,1.9-4.8,10.3-.4,11.7,3.1,8.1,1,2.6,1,1.6,5.8,11.1,7,8.9,1,1.4v.3s1.3,6.4,1.3,6.4h0c0,.1,9.6,17.2,9.6,17.2l1.4,10.6.3,6.3-1.7,8.5-.3,1.7-4,2.7-7.5-.9-3.3-6.4-6-2.8-9.7-12.4-8.4-11.1-2.7-5.7-.2-.2,1.4-10.9h0c0-.1-5.2-8.2-5.2-8.2l-12.6-11.9-5.7-1.8-12.9,9-2.4-.5h-.2s-7.5-6.7-7.5-6.7l-9.2-3-15.4,3.5-11.8-.8h-.5s-1.2.3-1.2.3l-9.3,1.7-5.6,2.6.4.7,2.4,3.7.3,6.5,3.3,2.9-1,.9-1.5,1.5-4.7-1.7-.8-.4-.2.3-4.9,3.2h-10.1s-11-7.9-11-7.9l-12.1,2.5h0c0-.1-10.3-3.5-10.3-3.5l-8.7,1.5-11.5,3.9-12.7,12-13.4,6.5-.7.4-1.7,1.6-6.2,5.9-3.3,7.2-.2,3.5v7.5c-.1,0,.2,3.8.2,3.8l.3,3.9v.3s2.6,5.2,2.6,5.2l-5.7.3-10.2-3.7-11.2-5.2-3.9-7.6-2.8-11.4-8-9.4-4.5-9.6-6.4-11.2-9.6-7-11.4-.5-9.6,12-11.3-5.7-6.8-5.5-2.6-9-3.7-8.9-7.5-7.9-6.4-5.8-4.3-6.1-23.5-2.8-.8,6.5-10.7-1.4-26.9-3.9-28.6-16.4-18.5-11.5,1.8-2.9-17.1-1.7-15.1-2.1-.4-8.5-6.3-11.1-5.6-3.3-.2-4.9-7-2.6-3.6-5.4-6.6-2.5-4.8-2-2.2-2.9-.4-.5.8-9-7.9-19-4.1-24.5,1.5-3.6-3.8-6.7-5.5-15.7,2.3-13.1-3.6-10.3,6.5-12.1,3.6-13.4v-12.9s8.8-13.2,8.8-13.2l9.2-22.2,1.9-4.8,4.3-21.2.7-14.1-.9-7.9,1.8-2,.5-.6,1.7,1.2,11.7,8.5,1.4,16.1,3.8-3.3.3-2.7,1.6-10.4v-13.5s29.3,8,29.3,8l30.7,7.4,10.3,2.3,31.8,6.3,31.1,5.1,31.7,4.2,31.9,3.2,36.1,2.4,36.4,1.1h22.2s0-6,0-6l3.6-.2,1.9,8.7,3.4,2.6,7.5.8,11.1,2.2,10.6,4.4,8.7-2.5,13.4,3.2,3.5-.4,9.3-5.2,10.6,4.9,11.3,5,9.3,4.3,9,4.2,1.6,4.1,2.7,1.2-.5,1.7,3.1.2,1.9-1.9,1,3.6,2.5,2.3,3-.4,2,1.7-1.1,3,12.6,6,4.5,14,4.3,13.6-1.9,9.8-4.3,9.6-1.7,5.9v1.7c0,0,1.5,2.1,1.5,2.1l4.5,2,2.9-.4,12.3-10.6,11.7-4.5,13.7-10.5v-1.7s-1.9-4.7-1.9-4.7l-2.5-2.8,4.7-3.5,11.2-2.1,10.3-2.1,2.4-6.9,1.1-1.5,9.5-13.9,4.2-4,16.8-3.9,20.3-5.3v-4.1c.1,0,3.4-1.6,3.4-1.6l4-3.8,1.9-8v-13s4.6-13.9,4.6-13.9l4.7,3,6.2-4.7,6.1,3,6.4,21,9.7,6.4,3.4,4.5-2.5,2.9-6.8,8.1ZM290.8,550.3l-2.4-4.3-5.2-3.1-3.2-4.6-1.7.3-1.2.2-1.4.3-3.2.8-3.7-.7-7.1-4.3-2.5-.4h-.4c0,0-2.1-.5-2.1-.5l-3.1-.7-3.8,1.1-5.8-1.8-3.5-2-2.9,1.5.9,3.8-.5.2-1,.3-3.2,1.4-2.4,2-3.1,1.3-.5-3.3,1.1-5.6,2.8-1.9-.8-1.3-3.3,3.3-1.8,3.8-2.2,2.2-1.9,1.8,1.5,2,.6.8-1.1,1.6-1.6,2.4-3.2,2.3-3.1,1.6-.8,2.5-4.9,2.7-.2.6-.9,2-3.6,2h-.2c0,0-2.1-.5-2.1-.5l-1.8.8-1.3.5-1.1.5-2.3,1-2.9,1.5-5.8.7-.3-1,3.9-2,3.4-1.3,3.7-2.6,3.9-.2,1.3-1.6.4-.5,4.5-3h0c0,0,.7-1.1.7-1.1l2.3-1.8.8-4.2,1.6-3.3-3.4,1.5-.9-1.1-1.7,1.9-1.7-3-.9,1.9-.7-2.6v-.3c-.1,0-.7.4-.7.4l-2.6,1.6-1.8-.2v-3c.1,0,.1-.3.1-.3l.8-2-1.5-2.1h0c0-.1-2.2.2-2.2.2l-1.6.3-1.9-3-1.7-1.6.5-3.1-1.6-2.8,1.3-2.3.3-.7,2.6-2.8,1.3-2.7h2.1c0-.1,1.6,1,1.6,1l.7-.6,1.7-1.8.9.4.8.3,2.1-1.5v-.4c0,0-.2-2.2-.2-2.2l-1.2-1.1,2-1.9h-1.5c0-.1-2.7.8-2.7.8l-.9,1.1-.8-.7-.9-.8h-1.3s-2.2,0-2.2,0l-3.3-1.9-.5-2.4-2.3-3.8,2.9-1.3.7-.3,1.3-.4,4.2-1.5,1.8.3-.2.8-.5,1.9,3.2.3h1.6c0,0-1.4-3.5-1.4-3.5l-1-1-1.4-1.4-1-2.8v-.2c0,0-.3-.4-.3-.4l-1.4-2.3-2.5-2.2.4-.6,1.3-2.1,3.3.4h.3c0,0,2.9-2,2.9-2l.8-2.6,2.3-2.4,1.5-.3h.4c0-.1,3.8-2.2,3.8-2.2l1.5.4h.2c0,0,.5-.4.5-.4l2.5-2.4,2.8,1.2,1.3,2.5.8-1.1,3.2.3v1.3c0,0,2.9.8,2.9.8l1.9-.7,4.2,1.4h3.8c0,.1,1.6.7,1.6.7l2.5-1.3,2.1.7,1.1.4h.2s2.1.3,2.1.3l4,20.3,6.2,31.5,2.7-.4,3,1,2.4,1.9,3.4,3,1.9-3.8,2.3-2.5,2.2,2.4,2.5,1.6,3.3,1.6,3,3.3,5,5.1,6.2,1.6,1.3,3.3-.7,3.1-2.4-1.4h-.2c0,0-3-.8-3-.8Z"/>
      <path class="st1" d="M550,229.8l-3,1.1.5,9h-.3c0-.1-2.7,1.7-2.7,1.7l-2.4,1.7-1.5,2.9,2.6,2.9-.7,4.1v4.4c.1,0-.2,3.6-.2,3.6l3.5,2.9h1.3c0,0,3.8,2.3,3.8,2.3l1.2,1,1,1.7,3,2.6,4,2.1.5,1.3.2,3.8.4,1.9-15.2.4-16.9.5-15.8.5h-12.7s.2-15.1.2-15.1l-1.2-15.5-2-1.2-1-2.5.6-2.2,2.5-1.8.2-2.3v-3s-.5-2.5-.5-2.5l-1-2.6-.6-3.3v-3.5s-.4-1-.4-1l-.4-4.6v-2.2c-.1,0-.2-1.9-.2-1.9l-.5-3.3-1.2-3.3-1.2-3v-2.8c-.1,0-.2-3.1-.2-3.1l.3-2,.2-1.9-.9-2.3-.3-1.5h11.4c0,0,10.8,0,10.8,0v-4.2s0-1.9,0-1.9l1.8-.2h1.8s.6,2.7.6,2.7l1.3,6,3.4,2.6,4.5.5,3.1.3,11.1,2.2,7.1,3,3.4,1.5,3.3-1,5.4-1.5,13.4,3.2-10.7,6-7.5,6.8-7.1,7.1v2.3ZM419.7,190.7l-2.2,29-1.1,19.4-1.8,14.6-18.9-2.1-20.2-2.1-17.5-2.4-22-3.1-1.3,8-.3.7-1.2-1.2-.7-2.3-1.2-.8-2.1,3h-2.6s-6.3-2.1-6.3-2.1l-.6,1.6-3.5-1.3-2.5,1.9-1.3-4.5-.9-2.5-2.3-.8-.4-1.2v-4.3s-1.6-2.4-1.6-2.4l-.4-5.2-.9-2.4-1.2-.6-1.6,1.9-2.5,1.5-1.7-2,.6-4,1.5-.7v-4.3s1.7-3.8,1.7-3.8l2-3.4-3.4-.8-2.2-2.8-2.1-5.4-1.3-2.8-2.1-2-1.6-3,.6-2.8-1.9-4.8,2.7-16.4,31.8,6.3,31.1,5.1,31.7,4.2,31.3,3.2ZM492.8,194.2l.3,1.5.9,2.3-.2,1.9-.3,2v3.1c.1,0,.2,2.8.2,2.8l1.2,3,1.2,3.3.5,3.3v1.9c.1,0,.2,2.2.2,2.2l.4,4.6.4,1v3.5s.5,3.3.5,3.3l1,2.6.6,2.5v3s-21.2.5-21.2.5l-18.1-.6-22.9-1.2-21.2-1.4,1.1-19.4,2.2-29h.6s36.1,2.5,36.1,2.5l36.4,1.1ZM379.6,552.3l2.8,1.3,2.4,2.2,4,5.5-.4,1-5.9,3.4-4.9,2.5-2.2,2.7-3.8-2.3.4-4.5-2.6-5.8.8-1.8,2.7-2.6-1.2-3.1,1-1.5,1.2.3,5.7,2.7ZM370.5,541.4l-1.2,2-5.1,1.1-2.6-3.4-1.8-1.2-.2-1.1,1.6-1.4,5.3,1.5,3.9,2.4ZM359.1,534.9l-.6,1.8-8-.5,1.2-1.9,7.4.7ZM339.9,526.2l1.4,1.1,4.3,5.3-.8.9-1.2-.3-5.3-.6-1.7-3.7-.6-.5,3.9-2.3ZM319.9,518.2l.4,3.7-1.8,1.6-5-3,.8-1.1,2.2-1.6,3.5.4ZM293.7,171.9l-2.7,16.4,1.9,4.8-.6,2.8,1.6,3,2.1,2,1.3,2.8,2.1,5.4,2.2,2.8,3.4.8-2,3.4-1.8,3.8v4.3s-1.4.7-1.4.7l-.6,4,1.7,2,2.5-1.5,1.6-1.9,1.2.6.9,2.4.4,5.2,1.6,2.4v4.3s.3,1.2.3,1.2l2.3.8.9,2.5,1.3,4.5,2.5-1.9,3.5,1.3.6-1.6,6.3,2h2.6s2.1-3,2.1-3l1.2.8.7,2.3,1.2,1.2.3.3-6.3,39.5-34.8-6-34.8-7.4,6.6-28.2,1.9-4.3-.4-2.2-1.8-1.5.6-2.5,2.4-3.1,3-2.7,2.7-4.7,2.5-3.7,1.4-1.8v-2.5s-1.6-1.7-1.6-1.7l-1.9-3.5.8-2.8-.5-2.6,4.6-21.8,4.3-19.8,6.8,1.5,3.5.8ZM283.5,169.6l-4.3,19.8-4.6,21.8.5,2.6-.8,2.8-22.4-5.1-4.3.6-2.7-1.4-2.4.7-4.4.7-4.9-1.4-2.7.5h-2.5c0-.1-1.5-1.4-1.5-1.4l-3.6-1.7-2.7-.2-4.5.4-2.7-.6-2.3-1.4-.2-2.3.5-2.7-1.1-3.4-2.8-1.8-2.2-2.2-3.3-1-2.3-.8,1.9-9.1.7-14.1-.9-7.9,2.3-2.6,13.4,9.7,1.4,16.1,3.8-3.3.2-1.8,1.8-11.3v-13.5s29.3,8,29.3,8l17.2,4.3,13.5,3.1ZM340.9,376.3l-12.5,90.6-26.9-3.9-28.6-16.4-13-8-5.6-3.5,1.8-2.9,1.7.3,2.2-2.8-2-2.6v-2.5s-.1-3-.1-3l3.3-3.1,2.4-7.1,4.7-2.5-1.9-3.5-1.1-3.3-.4-3-.2-2.3v-1.4c0,0,1.4-3.1,1.4-3.1v-3.2s.2-3,.2-3l.7-3.5-.6-2.4,1.2-1.7,2.6.5,2.2,1.6,1.5,1,1.3-2.3.8-.4,2.3-12.9,20.2,3.4,24.1,4.1,18.3,2.8ZM264.6,395.4v1.4c0,0,.3,2.3.3,2.3l.4,3,1.1,3.3,1.9,3.5-4.7,2.5-2.4,7.1-3.3,3.1v3c.1,0,.1,2.5.1,2.5l2,2.6-2.2,2.8-1.7-.3-17.1-1.7-13.9-1.9h-1.2c0-.1-.4-8.7-.4-8.7l-6.3-11.1-5.6-3.3-.2-4.9-7-2.6-3.6-5.4-11.4-4.5-2.6-3.4v-.3c0,0,.8-8.8.8-8.8l-4.8-11.4-3.1-7.6-4.1-24.5.5-1.1,1-2.4-3.8-6.4v-.3c0,0-2.5-6.6-2.5-6.6l-3-9.1,2.3-13.1-1.3-3.9-2.3-6.5,4.4-8.3,2.1-3.8,3.6-13.4,48,13.7-12.1,47,17.6,26.9,17.5,25.9,17,24.6ZM432.3,336.5l-1.6,25-1.5,23.7-12.2-.8-15.1-1.2-21.5-2.1-19.8-2.2-19.6-2.5,8.7-64.3,11.9,1.6,11.9,1.5,23.9,2.5,12,.9,24,1.8-1,15.8v.4ZM258.8,279.1l34.8,7.4-15.3,79.5-2.3,12.9-.8.4-1.3,2.3-1.5-1-2.2-1.6-2.6-.5-1.2,1.7.6,2.4-.7,3.5-.3,3v3.2s-1.4,3.1-1.4,3.1l-17-24.6-17.5-25.9-17.6-26.9,12.1-47,34.1,8.2h0ZM328.4,466.9l12.5-90.6,19.6,2.5,19.8,2.2,21.5,2.1,15.1,1.2-.6,8-3.1,42.4-2.2,30.3-12.5-1-24.2-2.3-12.3-1.3v1.4s1.3,2.8,1.3,2.8l-23.5-2.8-.8,6.5-10.7-1.4ZM274.2,216.6l1.9,3.5,1.6,1.7v2.5s-1.4,1.8-1.4,1.8l-2.5,3.7-2.7,4.7-3,2.7-2.4,3.1-.6,2.5,1.8,1.5.4,2.2-1.9,4.3-6.6,28.2h0c0,.1-34.1-8.1-34.1-8.1l-48-13.7v-12.9s8.8-13.2,8.8-13.2l5.7-13.4,5.5-13.6,2.4-12.1,2.3.8,3.3,1,2.2,2.2,2.8,1.8,1.1,3.4-.5,2.7.2,2.3,2.3,1.4,2.7.6,4.5-.4,2.7.2,3.6,1.7,1.5,1.2h2.5c0,.1,2.7-.4,2.7-.4l4.9,1.4,4.4-.7,2.4-.7,2.7,1.4,4.3-.6,22.4,5.1ZM293.6,286.5l34.8,6-2.5,15.6,23.7,4-8.7,64.3-18.3-2.8-24.1-4.1-20.2-3.4,15.3-79.5ZM334.4,252.6l.3-.7,1.3-8,22,3.1,17.5,2.4,20.2,2.1,18.9,2.1-2.5,32.8-2.7,32-12-.9-23.9-2.5-11.9-1.5-11.9-1.6-23.7-4,2.5-15.6,6.3-39.5-.3-.3ZM587.3,400.6v1.4c0,0-1.1,2.4-1.1,2.4l-2.2,1.7-.3,2.8-1.9,2.2.5,4.7-1.4,1.6v1.4c0,0-2.4,1.2-2.4,1.2v2.3c.1,0-1.5,4.5-1.5,4.5l-1.3,1-2.3,2.3-1.2,3.4-2.6,5.8-.2,3.9,1.8,4.2-.5,3.2h-11.3s-14.6,1.1-14.6,1.1l-12.9.3.7-9.2h-3.1c0,0-2.6.2-2.6.2l-.7-1.1v-14.2c.1,0,.2-15.7.2-15.7l-2.9-17,15.6-.2,14.1-.3,13.4-.6h14.7c0,.1,1.1,2,1.1,2l-1.4,1.9-1.2,1.9-.7,1.6,8.3-.5ZM500.7,282.4h12.7s15.8-.5,15.8-.5l16.9-.5,15.2-.4.2.8,1.6,2.5-1,1.3.2,3.3.7,1.5.7,2.6,4,1.3,1.2,2.4.8,1.2,1.4.7.6,1.8,1.9,1.1,1.3,1.3-.3,4.4-1.9,3.7-.7,1.3-2.7,1.1-4,.9-.9,2.9,1.6,1.2.6,2.4-1.4,2.8-.7,2.5-3,2.6-.2,2.9-1.6-1.3-2.5-2.5-13.2.9-13.8.5-10.8.2h-10.8c0,0-.9-2.8-.9-2.8l.5-2.9-.3-2.9-1.2-4.7-.8-1.9-.9-.6v-3.7s-.8-2.6-.8-2.6l-2.1-3v-1.4s-.8-2.6-.8-2.6l-.5-1.7v-1.5s-1.8-1.8-1.8-1.8l.9-2.6.6-2.6.3-1.8-1.5-2.2v-3.8s1.5,0,1.5,0ZM429.2,385.2l1.5-23.7,1.6-25,21.2,1.2,15.8.6,28,.5h16.8s2.9,2.2,2.9,2.2h1.6s.3,2.3.3,2.3l-1.6,3,.8,1.5,1.6,3.4,3.2,1.5v17.4c0,0,.3,17.4.3,17.4h-11.2c0,.1-22.8,0-22.8,0l-22.9-.5-12.5-.5-12.7-.6-12-.7ZM587.3,400.6l-8.3.5.7-1.6,1.2-1.9,1.4-1.9-1.1-1.9h-14.7c0-.1-13.4.5-13.4.5l-14.1.3-15.6.2v-7.4c0,0-.2-17.4-.2-17.4v-17.4c0,0-3.3-1.5-3.3-1.5l-1.6-3.4-.8-1.5,1.6-3-.3-2.3h-1.6s-2.9-2.2-2.9-2.2l-1.6-3.4-1.9-2.1-2.1-2.5-.2-1.4h10.8c0,0,10.8-.3,10.8-.3l13.8-.5,13.2-.9,2.5,2.5,1.6,1.3-.8,4,1.3,4.9,2.1,3.2,2.5,2.6,3,2,1.2.6,1.1,3,.3,2.7,1.5.6,2.3-1.2,2.4,2.5-.5,3.1-1,2.4-.6,2.9,1.9,2.4,2.6,2h1.5s3.5,3.3,3.5,3.3l1.3.5,1.1,3.8-.2,2.5,1.8,3.9,1.5-.5,2.3,2.3-.2,1.7.3,2.5-1.9,1.5-2.7,2-.2,1.5-.7,2.4-.7,3.9ZM432.3,336.5v-.4s1-15.8,1-15.8l-24-1.8,2.7-32,22.7,1.7,17.4,1,23.4.9,3,2.1,4.4,1.3.9-.7h2.7c0,0,4.3,0,4.3,0l3,2.1,3.2,1.4.4,1.4,1.1.7,2,.3.5,1.7.8,2.6v1.4s2.1,3,2.1,3l.8,2.6v3.7s.9.6.9.6l.8,1.9,1.2,4.7.3,2.9-.5,2.9.9,2.9.2,1.4,2.1,2.5,1.9,2.1,1.6,3.4h-16.8s-28-.5-28-.5l-15.8-.6-21.2-1.2ZM417.1,384.4l12.2.8,12,.7,12.7.6,12.5.5,22.9.5h22.8c0,0,11.2,0,11.2,0v7.4c0,0,2.9,17,2.9,17v15.7c0,0-.2,14.2-.2,14.2l-5.7-3.1-3.8-1.6-2.9,1.1-4.6-.3h-2.8c0,.1-2.4,1.4-2.4,1.4l-2.1.7-2.1-.8-4.3.9-2-2.8-2.1,2.3-3.6-1.1-3.7-2.5-4,1.6-1.6-3.9h-6.2c0,.1-3.7-.8-3.7-.8l-4.4-1.2-1.9-3.5-3.5,1-2-1.3-3.2-1.9.6-15.4.7-16-12.8-.6-12.8-.7-12.8-.9.6-8ZM499.9,241.9l-.2,2.3-2.5,1.8-.6,2.2,1,2.5,2,1.2,1.2,15.5-.2,15.1h-1.5s0,3.8,0,3.8l1.5,2.2-.3,1.8-.6,2.6-.9,2.6,1.8,1.8v1.5s-2-.3-2-.3l-1.1-.7-.4-1.4-3.2-1.4-3-2.1h-4.3c0,0-2.7,0-2.7,0l-.9.7-4.4-1.3-3-2.1-23.4-.9-17.4-1-22.7-1.7,2.5-32.8,1.8-14.6,21.2,1.4,22.9,1.2,18.1.6,21.2-.5ZM531.9,451.9l12.9-.3,14.6-1.1h11.3s1.1.9,1.1.9l-1.1,2.4,2.1,3.2-.4,1.9,1.9,2.8-1.8,1.7-.4,3-2.5,2.6-1.1,3.5-1.1,3.9-1.7,1.9.9,4.1,12-.2,13-.7-.2,2.6-.7,2.8,1,1.9,1.9,1.8.5,2.7.5,1.5.2.3,2.6,4.1.3,6.5,3.3,2.9-2.6,2.4-5.4-2.1-5.1,3.5h-10.1s-11-7.9-11-7.9l-12.1,2.5-10.3-3.5-8.7,1.5-.9-1.8,1.4-2.4,1.9-2.2v-3.1c.1,0-1-1.1-1-1.1l1.2-3.9.9-1.8,1.1-5.9-1.3-2.2-1.7-3.7-1.2-3.7-.9-2.4-2.2-1.9-1.2-17.1ZM363.5,464.6l-1.3-2.8v-1.4s12.2,1.3,12.2,1.3l24.2,2.3,12.5,1,2.2-30.3,3.1-42.4,12.8.9,12.8.7,12.8.6-.7,16-.6,15.4,3.2,1.9,2,1.3,3.5-1,1.9,3.5,4.4,1.2,3.7.9h6.2c0-.1,1.6,3.8,1.6,3.8l4-1.6,3.7,2.5,3.6,1.1,2.1-2.3,2,2.8,4.3-.9,2.1.8,2.1-.7,2.4-1.2h2.8c0-.1,4.6.1,4.6.1l2.9-1.1,3.8,1.6,5.7,3.1.7,1.1,2.6-.3h3.1c0,0-.7,9.3-.7,9.3l1.2,17.1,2.2,1.9.9,2.4,1.2,3.7,1.7,3.7,1.3,2.2-1.1,5.9-.9,1.8-1.2,3.9,1.1,1.1v3.1c-.1,0-2,2.2-2,2.2l-1.4,2.4.9,1.8-11.5,3.9-12.7,12-14.2,6.9-7.5,7.3-.4.3-3.3,7.2-.3,5.4v5.6c0,0,.6,7.7.6,7.7l1.5,3.3,1.1,2.2-5.7.3-10.2-3.7-11.2-5.2-3.9-7.6-2.8-11.4-8-9.4-3.4-7.1-1.2-2.5-6.4-11.2-9.6-7-5.2-.2-6.2-.3-9.6,12-11.3-5.7-2.2-1.8-4.6-3.7-2.6-9-3.7-8.9-7.5-7.9-.7-.5-5.7-5.3-3.9-5.5-.5-.6ZM769.9,274.3l8.9-1.9,10.7-2.3,2.4,8.5-.2,2.5-4.9,2.1-6.6,2.5-1.9,1.6-6.1,4.7-.2-.4-.8-1.9,2.1-2.1-1.2-1.1-2.1-12.2ZM789.4,270.1l-10.7,2.3-8.9,1.9-.2-11.4,9.5-2.1,13.8-3.4.8-1.9,2.1-1.7h1.4s2.1,8.3,2.1,8.3l6.1,7.2,4.9-.9-1-1.9-1.9-3.5,4.5,2.4.2,2.9v1.8s-5.4,3.6-5.4,3.6l-1.6,1-5.5,1.2-1.1-2.3-2.3-1.4-1.8-3.9-4.8,1.6ZM797.1,253.9h-1.4s-2.1,1.7-2.1,1.7l-.8,1.9-13.8,3.4-1.3-1.4.3-2.4-.9-4.2.2-1-.7-3.8.5-3.4.5-1.6.4-4.1-.4-2.6v-1.7s1.9-1.2,1.9-1.2l2.1-2.5v-2.1c0,0-1.5-2-1.5-2l.2-4.6v-4.1c.1,0,3.4-1.6,3.4-1.6l9.3,28.1v1.6s2.6,1.8,2.6,1.8l1.2,2,1.1-.5-.9,4.1ZM791.6,281.1l.2-2.5-2.4-8.5,4.8-1.6,1.8,3.9,2.3,1.4,1.1,2.3-1,.5-6.9,4.4ZM779.1,260.8l-9.5,2.1-2.6-13.1-1.8.3-.3-.5v-2.6c.1,0-1.8-3.7-1.8-3.7l.4-3.6-1.3-2.2-1.2-4.5v-2.2c0,0-.7-3.1-.7-3.1l10.7-2.8,9.6-2.5-.2,4.6,1.5,2v2.1c0,0-2,2.5-2,2.5l-1.8,1.2v1.7s.3,2.6.3,2.6l-.4,4.1-.5,1.6-.5,3.4.7,3.8-.2,1,.9,4.2-.3,2.4,1.3,1.4ZM607.9,415.8l16.4-1.5,16.7-1.6,5.6,19.6,4.9,15.6,2.5,4.8,1.6,2.7-1.9,3.1v5.1c-.1,0,.9,2.9.9,2.9v2.9s0,2.8,0,2.8l1.1,1.9.9,1.7-27.8,3.1-7.7,1.7-.2,1.3,3.5,3.5-.4,3.3-.9,2.3-12.3-.7-2.3-24.5.2-25.9.7-21-1.3-3.1ZM623,491.1l.9-2.3.4-3.3-3.5-3.5.2-1.3,7.7-1.7,27.8-3.1,2.5,4.1,14-.9,22.3-.7,1.5,2.7,1.6-1.7-.8-5.5,1.5-.8,3,.8,2.9-.2,4,10.7,6.8,12.7,8,10.3,1.3,6.7,9.7,17.2,1.4,10.6.3,6.3-2,10.2-4,2.7-7.5-.9-1.4-2.8-1.9-3.7-6-2.8-4.5-5.8-5.2-6.6-8.4-11.1-2.9-5.9,1.4-11.1-5.2-8.1-12.6-11.9-5.7-1.8-12.9,9-2.6-.5-7.7-6.7-9-3-8.7,1.9-6.7,1.6ZM656.5,476l-.9-1.7-1.1-1.9v-2.8s0-2.9,0-2.9l-1-2.9v-5.1c.1,0,2.1-3.1,2.1-3.1l-1.6-2.7-2.5-4.8-4.9-15.6-5.6-19.6,10-1,6.9-1,16.2-2-1.3,1.6-1.6,3.3,3.9,2.2,2.3.7,3.2,4.7,1.9,2.6,5.1,3.1,1.2,1.9,3.5,2.1,2.1,3.6,4.8,2.5,1.4,3.5,1.1,1.6-.3,1.3,2.7,1.4,1.9,2.8.5,3,1.3.5,2.4.5-4.8,10.3-.4,11.7-2.9.2-3-.8-1.5.8.8,5.5-1.6,1.7-1.5-2.7-22.3.7-14,.9-2.5-4.1ZM570.6,450.5l.5-3.2-1.8-4.2.2-3.9,2.6-5.8,1.2-3.4,2.3-2.3,1.3-1,1.6-4.5v-2.3c-.1,0,2.2-1.2,2.2-1.2v-1.4c0,0,12.9-.8,12.9-.8l14.2-.7,1.3,3.1-.7,21-.2,25.9,2.3,24.5-10.5,1.9-5.4,2.8-.2-.3-.5-1.5-.5-2.7-1.9-1.8-1-1.9.7-2.8.2-2.6-13,.7-12,.2-.9-4.1,1.7-1.9,1.1-3.9,1.1-3.5,2.5-2.6.4-3,1.8-1.7-1.9-2.8.4-1.9-2.1-3.2,1.1-2.4-1.1-.9ZM710.1,451.7l-2.4-.5-1.3-.5-.5-3-1.9-2.8-2.7-1.4.3-1.3-1.1-1.6-1.4-3.5-4.8-2.5-2.1-3.6-3.5-2.1-1.2-1.9-5.1-3.1-1.9-2.6-3.2-4.7-2.3-.7-3.9-2.2,1.6-3.3,1.3-1.6,1.3-.6,6.5-3.7,11.9-1.6,6.1-.3.4,1.3,1-1.1,2.4,2.4.3,1.8,14.4-2.3,17.2,12.6-5.6,7-.9,5.6-12.8,12.9-6.2,8.8ZM561.3,331.6l.2-2.9,3-2.6.7-2.5,1.4-2.8-.6-2.4-1.6-1.2.9-2.9,4-.9,2.7-1.1.7-1.3,1.9-3.7.3-4.4-1.3-1.3-1.9-1.1-.6-1.8-1.4-.7-.8-1.2,12.1-.7,12.2-.9,9-.6.5,4.2,4,8.2,1.7,18.6,1.5,18.7-.9,4.6,1.1,1,.9,2.8.2,2.1-1,1.2-.6,2.7-2.3,3.8-1.4,4.4-.2,3.3.3,1.2-1.3,2.3,1.3,1.4-2.2,1.4-2.7,1.6.8,3.4-1.5,1.5-3.2-1.3-3.3-.6-.9,1.6.7,2.4-2.3-2.3-1.5.5-1.8-3.9.2-2.5-1.1-3.8-1.3-.5-3.5-3.2h-1.5s-2.6-2.1-2.6-2.1l-1.9-2.4.6-2.9,1-2.4.5-3.1-2.4-2.5-2.3,1.2-1.5-.6-.3-2.7-1.1-3-1.2-.6-3-2-2.5-2.6-2.1-3.2-1.3-4.9.8-4ZM605.6,370.1l.2-3.3,1.4-4.4,2.3-3.8.6-2.7,1-1.2-.2-2.1-.9-2.8-1.1-1,.9-4.6-1.5-18.7-1.7-18.6,1.2,1,4-.5,3.1-2.1,12.6-1.2,11.2-1.4v1.2c.1,0,1.9,14.6,1.9,14.6l1.7,15.6,1.3,11.2-.7.8,1.3,3.2-.3,1.3-2.1.2-1.7,1.7-3-.4v3.2s-1.6,1.4-1.6,1.4l-1.3,2.9-1.7.6-2.2,5.1-2.6-1.1-1-1.8-1.8,3.4-1.3,1.9-2.8-1.5-2.8,1.8-.8,1.6-4.1-2.1-2.4,2-3.4-1v1.8s-1.7-.3-1.7-.3ZM589,392.8l2.7-2,1.9-1.5-.3-2.5.2-1.7-.7-2.4.9-1.6,3.3.6,3.2,1.3,1.5-1.5-.8-3.4,2.7-1.6,2.2-1.4-1.3-1.4,1.3-2.3-.3-1.2,1.7.3v-1.8s3.4,1,3.4,1l2.4-2,4.1,2.1.8-1.6,2.8-1.8,2.8,1.5,1.3-1.9,1.8-3.4,1,1.8,2.6,1.1,2.2-5.1,1.7-.6,1.3-2.9,1.6-1.4v-3.2s2.9.4,2.9.4l1.7-1.7,2.1-.2.3-1.3-1.3-3.2.7-.8,4.2-.2,2.3,1.4,3.8,3.1,2.7.9,2.1,1,2.8-.8,2.4.7,2.4-1.3,2.4-.6,1.3,2.2,2.5,1.2.5,1.5.3,3.4,1.8,2.2,1,2.4,2.1,1.8,1.6,1.7h2.5c0,0-1.1,1.3-1.1,1.3l-3.2,4.1-3.6,2.5v1.4c-.1,0-1.2,1.8-1.2,1.8l-3,2.2v.2c-.1,0-.3.2-.3.2l-.8,1.6-1.9.9-.6.4-3.5,1.4-8.5,1.5-11.3.6-3.6.7-7.3.4-7.4.6-6.9.5-7.9,1.1-.4-.7-2.5.2.2,2.6-18.2,1.2ZM674,408.8l-16.2,2v-3.5c0,0,2.5-1.3,2.5-1.3l.8-1.9,1.4-2.1,2.6-.8,2.9-1.1,2.8-1.9,1-1.5,2.3-1.6-.2-1.2,2.8-2.6,1.2,1.4,4.2-3.8h2.4c0,0,1.6-3,1.6-3l2.4-1.1-.5-2.3v-2.1s-4.9,1-4.9,1l4.9-1,21.4-2.7,25-4.4,13.3-2.8,11.8-2.6,1.5-.3,1.3,3.7,3.9,11.8-3.1,7.9-2.5,5.6-12.2,7.4-6.8,11-6.2,2.3-17.2-12.6-14.4,2.3-.3-1.8-2.4-2.4-1,1.1-.4-1.3-6.1.3-11.9,1.6-6.5,3.7-1.3.6ZM643.6,345.4l-1.3-11.2-1.7-15.6-1.7-14.6,6-.9,5.4-.7,4.4-.7,7.8,2.4h6s8.3-3.5,8.3-3.5l6.2-5.6,5.8-3,3.5,21.3-1.6,1.1.8,2v3.7c.1,0-.4,4.4-.4,4.4l-.7,3.6v1.7c.1,0-2.6,4.2-2.6,4.2l-1.3,1-1.5.7h-1.6s-2.3,3.1-2.3,3.1v2.9s-.1,1.5-.1,1.5l-1,.8-.4-1.7-1.6-.2-1.2,3.8.4,3.6-1.4,2.4-3,.8-2.5-1.2-1.3-2.2-2.4.6-2.4,1.3-2.4-.7-2.8.8-2.1-1-2.7-.9-3.8-3.1-2.3-1.4-4.2.2ZM580.8,417.3l1.4-1.6-.5-4.7,1.9-2.2.3-2.8,2.2-1.7,1-2.4v-1.4c0,0,.8-3.9.8-3.9l.7-2.4.2-1.5,18.2-1.2-.2-2.6,2.5-.2.4.7,7.9-1.1,6.9-.5,7.4-.6,7.3-.4,3.6-.7,11.3-.6,8.5-1.5,3.5-1.4.6-.4-.6.4-3.5,1.4,18.8-2,1.5-.4,4.9-1v2.1s.5,2.3.5,2.3l-2.4,1.1-1.6,3h-2.4c0,0-4.2,3.7-4.2,3.7l-1.2-1.4-2.8,2.6.2,1.2-2.3,1.6-1,1.5-2.8,1.9-2.9,1.1-2.6.8-1.4,2.1-.8,1.9-2.6,1.3v3.5c0,0-6.8,1-6.8,1l-10,1-16.7,1.6-16.4,1.5-14.2.7-12.9.8ZM667,382.1l1.9-.9.8-1.6v-.2c.1,0,.3-.2.3-.2l3-2.2,1.1-1.8v-1.4c.1,0,3.8-2.5,3.8-2.5l3.2-4.1,1.1-1.4.9,2.7,1.3,1.1.4.2,2.2,1.1,2.5-1.9,1.1-.7,1.7,1,3.7-1.8.8-.3v-1s0-.5,0-.5l1.5.3,1.3-1.3h.2s1.7,0,1.7,0l1.9-1.7v-.8s0-.5,0-.5l-.5-1.9,1.1-3.1,2.1-2.4.2-2.4.8-1.8.7-1.4.7-3.8,1.8.9,2,.9,1.6-1,.4-1.6.9-2.1.5-1.6.3-.9,1.1.5,1.4-2.4,1.2-1.5.8-1,.4-.6.9-1.3.2-3.5v-.8s6.4,2.8,6.4,2.8l.5.2.8-3.3h.3c0,0,1.5.2,1.5.2l1.8.9-.4,1.5v.4c0,0,2.6.4,2.6.4l2.6,1.3,1.2,1.2.2.9v1.4c.1,0-.3.4-.3.4l-1.3,1.5-.7,3.8,1.8.5,1.9-1.1.8,1.7.3.5,9.3,3.3h.2c0,.1,3.6,15,3.6,15l3.8.5,2.5,5.1-1.5.3-11.8,2.6-13.3,2.8-25,4.4-21.4,2.7-4.9,1-1.5.4-18.8,2,3.5-1.4.6-.4ZM758.3,345.3l1.1-1.2,2.8-.9-4.1,14.2-1.3-.4,1.5-11.6ZM561.2,281l-.4-1.9-.2-3.8-.5-1.3-4-2.1-3-2.6-1-1.7-1.2-1-3.8-2.2h-1.3c0,0-3.5-3-3.5-3l.3-3.6v-4.4c-.1,0,.6-4.1.6-4.1l-2.6-2.9,1.5-2.9,2.4-1.7,2.7-1.9h.3c0,.1-.5-8.8-.5-8.8l3-1.1,10.9-3.8,6.9,4.9h.2c0,.1.7-.2.7-.2l1.8.4,1,2.8,9.9,2.2,6.7,2.4,3-.2h2.2c0,0,.9,2.6.9,2.6l2.7.9,1.2,2.1-.6,1.4-.4,2.6h2.5c0,0-.5,2.6-.5,2.6l1.6,1.8h0c0-.1.3,0,.3,0h-.1c0,.1-3.9,6.4-3.9,6.4l1.8,1.8,7.3-11.1,1.7-.3-4.7,12.9-1.7,11.4-1.3,9.3,2,7.7v4s-9,.6-9,.6l-12.2.9-12.1.7-1.2-2.4-4-1.3-.7-2.6-.7-1.5-.2-3.3,1-1.3-1.6-2.5-.2-.8ZM682.2,365.8h-2.5c0,0-1.6-1.6-1.6-1.6l-2.1-1.8-1-2.4-1.8-2.2-.3-3.4-.5-1.5,3-.8,1.4-2.4-.4-3.6,1.2-3.8,1.6.2.4,1.7,1-.8v-1.5c0,0,.1-2.9.1-2.9l2.3-3.1h1.6s1.5-.6,1.5-.6l1.3-1,2.7-4.2v-1.7c-.1,0,.6-3.6.6-3.6l.6-4.4v-3.7c-.1,0-.9-2-.9-2l1.6-1.1,2.4,14.7,12.5-2.1,1.3,8.2,1.7-1.7,1.7-2.3,2.2-1.1,1.4-1.9h3.6s1.2-1.4,1.2-1.4l2-1.6,4,.5,2,2,1.3,1.8-.8,3.3-.5-.2-6.4-2.8v.8s-.2,3.5-.2,3.5l-.9,1.3-.4.6-.8,1-1.2,1.5-1.4,2.4-1.1-.5-.3.9-.5,1.6-.9,2.1-.4,1.6-1.6,1-2-.9-1.8-.9-.7,3.8-.7,1.4-.8,1.8-.2,2.4-2.1,2.4-1.1,3.1.5,1.9v.5c0,0,0,.8,0,.8l-1.9,1.7h-1.7s-.2,0-.2,0l-1.3,1.3-1.5-.3v.5c0,0,0,1,0,1l-.8.3-3.7,1.8-1.7-1-1.1.7-2.5,1.9-2.2-1.1-.4-.2-1.3-1.1-.9-2.7ZM764.6,335.5l-8.1,1.8-5.2-20,.5-1.4.9-.9,2.8.2-1.5,2,1.1,3,4.4,7.9,3.6,2.2,1.3,5.2ZM739.3,335.2l-.2-.9-1.2-1.2.8-1,1.9,1.4-1.3,1.7ZM762.2,343.2l-2.8.9-1.1,1.2-7.7-4.7-4.2-12.8-1,7.2,4.8,9.6-8.6-.8-.3-.5-.8-1.7-1.9,1.1-1.8-.5.7-3.8,1.3-1.5.4-.4v-1.4c-.1,0,1.2-1.7,1.2-1.7l-1.9-1.4-.8,1-2.6-1.3-2.7-.4v-.4c0,0,.4-1.5.4-1.5l-1.8-.9h-1.5c0-.1-.3-.2-.3-.2l-1.3-1.8-2-2-4-.5-2,1.6-1.2,1.5h-3.6s-1.4,1.9-1.4,1.9l-2.2,1.1-1.7,2.3-1.7,1.7-1.3-8.2,11.1-1.9,3.7-.8,8.6-1.7,10.3-2.1,10.6-2.2,5.2,20,8.1-1.8.2.7-2.6,7.1ZM755.3,320.2l-1.1-3,1.5-2,2.2-2,.6-1.1,2.3-2.8,1.1-2.1-4.6-3.2-.5-1.7h-1.5c0,0-.4-2.7-.4-2.7l.9-2.3-1.1-1.9,1.5-1.8,1.2-4.1,1.4-1,10.4,4.2.3,3.3-2.6,5.3,3.7-.2v12c0,0-1.1,2.8-1.1,2.8l-4.8,11.3-1.7-3.9h-.7s-2.2-.2-2.2-.2l-2.3-1.5-2.5-1.6ZM769.9,274.3l2.1,12.2,1.2,1.1-2.1,2.1.8,1.9.2.4-.7.6,16.4-7.2,4.2,2-10.7,6.3-4.5,2.5-7.5,1.9v-2.1s-.3-3.3-.3-3.3l-10.4-4.2-2.2-.6-2.2-.6-1.3-2.1v-1.8c0,0-1.8-1.2-1.8-1.2l-3.1-2-15.7,3.3-16.9,3.3-18.2,3.3-.7-4.3,8.2-11.2-.4-1.5-1.9-4.7,5-2.7,9.2-1.2,9.6-.5,7.3-7-1.9-6-1.6-1.9,9.1-13.4,4.2-4,16.8-3.9.6,3.1v2.2c0,0,1.3,4.5,1.3,4.5l1.3,2.2-.4,3.6,2,3.7v2.6c-.1,0,.1.5.1.5l1.8-.3,2.6,13.1.2,11.4ZM692.1,313.3l-3.5-21.3,8-6.1h0c0-.1.7,4.2.7,4.2l18.2-3.3,16.9-3.3,15.7-3.3,3.1,2,1.7,1.2v1.8c0,0,1.4,2.1,1.4,2.1l2.2.6,2.2.6-1.4,1-1.2,4.1-1.5,1.8,1.1,1.9-.9,2.3.4,2.6h1.5c0,0,.5,1.8.5,1.8l4.6,3.2-1.1,2.1-2.3,2.8-.6,1.1-2.2,2-2.8-.2-.9.9-.5,1.4-10.6,2.2-10.3,2.1-8.6,1.7-3.7.8-11.1,1.9-12.5,2.1-2.4-14.7ZM798.1,249.8l-1.1.5-1.2-2-2.7-1.8v-1.6s-9.2-28.1-9.2-28.1l4-3.8.9-3.9,1-4.1v-4.9s0-8.1,0-8.1l3.2-9.2,1.5-4.7,3.6,2.3,1.1.7,6.3-4.7,6,3,3.8,12.5,2.6,8.5,9.7,6.4,3.4,4.5-9.3,11-9.7,8.6-10.4,7.9-3.4,10.9ZM601,252.3h-.3c0-.1,0,0,0,0l-1.6-1.8.5-2.6h-2.5c0,0,.4-2.6.4-2.6l.6-1.4-1.2-2.1-2.7-.9-.9-2.5h-2.2c0,0-3,.1-3,.1l-6.7-2.4-9.9-2.2-1-2.8-1.8-.4-.7.3h-.2c0-.1.2,0,.2,0l8.2-4.6,8.5-5.8,9.2-6-2.9,8.7,6.5,1.5,8.3,5.4,9.4-4.5,10.7-2.7,2.8,4.2,3.4.3,3.1.2,6.3,5.7-9.6,2.6h-.3s-9-.7-9-.7l-8.3,4.2-7.4,2.1-5.6,10.8ZM654.6,301.7l-4.4.7-5.4.7-6,.9v-1.2c-.1,0-11.3,1.4-11.3,1.4l-12.6,1.2,2.1-2.4,3.9-8.4-.6-10.6-4.9-9.6v-6.9c0,0,2.1-8.2,2.1-8.2l2.2-5.6,4.1-4.3,1.6,5.2,1.2-8.1,2.3-1.9.7-6.3,10,2.1,9.1,5.1,1.8,7.1v7.5s-5.4,7.2-5.4,7.2l1.1,4,2.3-.2,6-8,4.5,1,3.4,8.9,1.5,6.4-1.6,3.6-2.7,6.1-1,3.2-.7,2.7-3.3,6.7ZM224.3,548l2,.4,1.3,1.7-2.6,2.7-3,2.2-1.5-1.4-.4-2.6,2.7-2,1.6-.9ZM187.7,531.1l2.1.9v2.2c-.1,0-2,.6-2,.6l-1.6-1.4-1.4-1.8,2.9-.4ZM178.6,509.4l1.2,1.4,1.6-.2,1.6,1.9,2.2,1.3-.3.6-2.2.7-1.6-1.7-.7-1.2-2.2-.2-.5-.7.7-2ZM280,538.3l-2.8.5-4.5,1.1-3.7-.7-7.1-4.3-2.9-.5-5.2-1.1-3.8,1.1-5.8-1.8-3.5-2-2.9,1.5.9,3.8-1.5.5-3.2,1.4-2.4,2-3.1,1.3-.5-3.3,1.1-5.6,2.8-1.9-.8-1.3-3.3,3.3-1.8,3.8-4,4,2.1,2.7-2.8,4.1-3.2,2.3-3.1,1.6-.8,2.5-4.9,2.7-1.1,2.6-3.9,2.1-2.1-.6-3.1,1.3-3.5,1.5-2.9,1.5-5.8.7-.3-1,3.9-2,3.4-1.3,3.7-2.6,3.9-.2,1.8-2.1,4.5-3,.8-1.1,2.3-1.8.8-4.2,1.6-3.3-3.4,1.5-.9-1.1-1.7,1.9-1.7-3-.9,1.9-.8-2.9-3.1,1.9-1.8-.2v-3.4c.1,0,.9-2,.9-2l-1.5-2.2-3.8.6-1.9-3-1.7-1.6.5-3.1-1.6-2.8,1.6-3,2.6-2.8,1.3-2.7h2.1c0-.1,1.6,1,1.6,1l2.4-2.4,1.8.7,2.1-1.5-.2-2.6-1.2-1.1,2-1.9h-1.5c0-.1-2.7.8-2.7.8l-.9,1.1-1.7-1.5h-3.5c0,0-3.3-1.9-3.3-1.9l-.5-2.4-2.3-3.8,3.7-1.6,5.4-1.8,1.8.3-.7,2.7,4.8.4-1.4-3.6-2.4-2.5-1.1-3-1.6-2.7-2.5-2.2,1.7-2.7,3.6.4,2.9-2.1.8-2.6,2.3-2.4,1.9-.4,3.8-2.1,1.7.5,3-2.8,2.8,1.2,1.3,2.5.8-1.1,3.2.3v1.3c0,0,2.9.8,2.9.8l1.9-.7,4.2,1.4h3.8c0,.1,1.6.7,1.6.7l2.5-1.3,3.2,1.1,2.3.3,4,20.3,6.2,31.5,2.7-.4,3,1,2.1,1.7.3.3h0s3.3,3,3.3,3l1.9-3.8,2.3-2.5,2.2,2.4,1.5,1,1,.7,3.3,1.6,2.5,2.7.5.5,5,5.1,6.2,1.6,1.3,3.3-.7,3.1-2.4-1.4-3.3-.7-2.4-4.4-5.2-3.1-3.2-4.6Z"/>
      <g>
        <g>
          <path class="st8" d="M224.3,548l2,.4,1.3,1.7-2.6,2.7-3,2.2-1.5-1.4-.4-2.6,2.7-2,1.6-.9ZM187.7,531.1l2.1.9v2.2c-.1,0-2,.6-2,.6l-1.6-1.4-1.4-1.8,2.9-.4ZM178.6,509.4l1.2,1.4,1.6-.2,1.6,1.9,2.2,1.3-.3.6-2.2.7-1.6-1.7-.7-1.2-2.2-.2-.5-.7.7-2ZM280,538.3l-2.8.5-4.5,1.1-3.7-.7-7.1-4.3-2.9-.5-5.2-1.1-3.8,1.1-5.8-1.8-3.5-2-2.9,1.5.9,3.8-1.5.5-3.2,1.4-2.4,2-3.1,1.3-.5-3.3,1.1-5.6,2.8-1.9-.8-1.3-3.3,3.3-1.8,3.8-4,4,2.1,2.7-2.8,4.1-3.2,2.3-3.1,1.6-.8,2.5-4.9,2.7-1.1,2.6-3.9,2.1-2.1-.6-3.1,1.3-3.5,1.5-2.9,1.5-5.8.7-.3-1,3.9-2,3.4-1.3,3.7-2.6,3.9-.2,1.8-2.1,4.5-3,.8-1.1,2.3-1.8.8-4.2,1.6-3.3-3.4,1.5-.9-1.1-1.7,1.9-1.7-3-.9,1.9-.8-2.9-3.1,1.9-1.8-.2v-3.4c.1,0,.9-2,.9-2l-1.5-2.2-3.8.6-1.9-3-1.7-1.6.5-3.1-1.6-2.8,1.6-3,2.6-2.8,1.3-2.7h2.1c0-.1,1.6,1,1.6,1l2.4-2.4,1.8.7,2.1-1.5-.2-2.6-1.2-1.1,2-1.9h-1.5c0-.1-2.7.8-2.7.8l-.9,1.1-1.7-1.5h-3.5c0,0-3.3-1.9-3.3-1.9l-.5-2.4-2.3-3.8,3.7-1.6,5.4-1.8,1.8.3-.7,2.7,4.8.4-1.4-3.6-2.4-2.5-1.1-3-1.6-2.7-2.5-2.2,1.7-2.7,3.6.4,2.9-2.1.8-2.6,2.3-2.4,1.9-.4,3.8-2.1,1.7.5,3-2.8,2.8,1.2,1.3,2.5.8-1.1,3.2.3v1.3c0,0,2.9.8,2.9.8l1.9-.7,4.2,1.4h3.8c0,.1,1.6.7,1.6.7l2.5-1.3,3.2,1.1,2.3.3,4,20.3,6.2,31.5,2.7-.4,3,1,2.1,1.7.3.3h0s3.3,3,3.3,3l1.9-3.8,2.3-2.5,2.2,2.4,1.5,1,1,.7,3.3,1.6,2.5,2.7.5.5,5,5.1,6.2,1.6,1.3,3.3-.7,3.1-2.4-1.4-3.3-.7-2.4-4.4-5.2-3.1-3.2-4.6Z"/>
          <path class="st8" d="M283.5,169.6l-4.3,19.8-4.6,21.8.5,2.6-.8,2.8-22.4-5.1-4.3.6-2.7-1.4-2.4.7-4.4.7-4.9-1.4-2.7.5h-2.5c0-.1-1.5-1.4-1.5-1.4l-3.6-1.7-2.7-.2-4.5.4-2.7-.6-2.3-1.4-.2-2.3.5-2.7-1.1-3.4-2.8-1.8-2.2-2.2-3.3-1-2.3-.8,1.9-9.1.7-14.1-.9-7.9,2.3-2.6,13.4,9.7,1.4,16.1,3.8-3.3.2-1.8,1.8-11.3v-13.5s29.3,8,29.3,8l17.2,4.3,13.5,3.1Z"/>
          <path class="st8" d="M340.9,376.3l-12.5,90.6-26.9-3.9-28.6-16.4-13-8-5.6-3.5,1.8-2.9,1.7.3,2.2-2.8-2-2.6v-2.5s-.1-3-.1-3l3.3-3.1,2.4-7.1,4.7-2.5-1.9-3.5-1.1-3.3-.4-3-.2-2.3v-1.4c0,0,1.4-3.1,1.4-3.1v-3.2s.2-3,.2-3l.7-3.5-.6-2.4,1.2-1.7,2.6.5,2.2,1.6,1.5,1,1.3-2.3.8-.4,2.3-12.9,20.2,3.4,24.1,4.1,18.3,2.8Z"/>
          <path class="st8" d="M264.6,395.4v1.4c0,0,.3,2.3.3,2.3l.4,3,1.1,3.3,1.9,3.5-4.7,2.5-2.4,7.1-3.3,3.1v3c.1,0,.1,2.5.1,2.5l2,2.6-2.2,2.8-1.7-.3-17.1-1.7-13.9-1.9h-1.2c0-.1-.4-8.7-.4-8.7l-6.3-11.1-5.6-3.3-.2-4.9-7-2.6-3.6-5.4-11.4-4.5-2.6-3.4v-.3c0,0,.8-8.8.8-8.8l-4.8-11.4-3.1-7.6-4.1-24.5.5-1.1,1-2.4-3.8-6.4v-.3c0,0-2.5-6.6-2.5-6.6l-3-9.1,2.3-13.1-1.3-3.9-2.3-6.5,4.4-8.3,2.1-3.8,3.6-13.4,48,13.7-12.1,47,17.6,26.9,17.5,25.9,17,24.6Z"/>
          <path class="st8" d="M432.3,336.5l-1.6,25-1.5,23.7-12.2-.8-15.1-1.2-21.5-2.1-19.8-2.2-19.6-2.5,8.7-64.3,11.9,1.6,11.9,1.5,23.9,2.5,12,.9,24,1.8-1,15.8v.4Z"/>
          <path class="st8" d="M293.6,286.5l34.8,6-2.5,15.6,23.7,4-8.7,64.3-18.3-2.8-24.1-4.1-20.2-3.4,15.3-79.5Z"/>
          <path class="st8" d="M328.4,466.9l12.5-90.6,19.6,2.5,19.8,2.2,21.5,2.1,15.1,1.2-.6,8-3.1,42.4-2.2,30.3-12.5-1-24.2-2.3-12.3-1.3v1.4s1.3,2.8,1.3,2.8l-23.5-2.8-.8,6.5-10.7-1.4Z"/>
          <path class="st8" d="M258.8,279.1l34.8,7.4-15.3,79.5-2.3,12.9-.8.4-1.3,2.3-1.5-1-2.2-1.6-2.6-.5-1.2,1.7.6,2.4-.7,3.5-.3,3v3.2s-1.4,3.1-1.4,3.1l-17-24.6-17.5-25.9-17.6-26.9,12.1-47,34.1,8.2h0Z"/>
          <path class="st8" d="M293.7,171.9l-2.7,16.4,1.9,4.8-.6,2.8,1.6,3,2.1,2,1.3,2.8,2.1,5.4,2.2,2.8,3.4.8-2,3.4-1.8,3.8v4.3s-1.4.7-1.4.7l-.6,4,1.7,2,2.5-1.5,1.6-1.9,1.2.6.9,2.4.4,5.2,1.6,2.4v4.3s.3,1.2.3,1.2l2.3.8.9,2.5,1.3,4.5,2.5-1.9,3.5,1.3.6-1.6,6.3,2h2.6s2.1-3,2.1-3l1.2.8.7,2.3,1.2,1.2.3.3-6.3,39.5-34.8-6-34.8-7.4,6.6-28.2,1.9-4.3-.4-2.2-1.8-1.5.6-2.5,2.4-3.1,3-2.7,2.7-4.7,2.5-3.7,1.4-1.8v-2.5s-1.6-1.7-1.6-1.7l-1.9-3.5.8-2.8-.5-2.6,4.6-21.8,4.3-19.8,6.8,1.5,3.5.8Z"/>
          <path class="st8" d="M274.2,216.6l1.9,3.5,1.6,1.7v2.5s-1.4,1.8-1.4,1.8l-2.5,3.7-2.7,4.7-3,2.7-2.4,3.1-.6,2.5,1.8,1.5.4,2.2-1.9,4.3-6.6,28.2h0c0,.1-34.1-8.1-34.1-8.1l-48-13.7v-12.9s8.8-13.2,8.8-13.2l5.7-13.4,5.5-13.6,2.4-12.1,2.3.8,3.3,1,2.2,2.2,2.8,1.8,1.1,3.4-.5,2.7.2,2.3,2.3,1.4,2.7.6,4.5-.4,2.7.2,3.6,1.7,1.5,1.2h2.5c0,.1,2.7-.4,2.7-.4l4.9,1.4,4.4-.7,2.4-.7,2.7,1.4,4.3-.6,22.4,5.1Z"/>
        </g>
        <g>
          <path class="st9" d="M797.1,253.9h-1.4s-2.1,1.7-2.1,1.7l-.8,1.9-13.8,3.4-1.3-1.4.3-2.4-.9-4.2.2-1-.7-3.8.5-3.4.5-1.6.4-4.1-.4-2.6v-1.7s1.9-1.2,1.9-1.2l2.1-2.5v-2.1c0,0-1.5-2-1.5-2l.2-4.6v-4.1c.1,0,3.4-1.6,3.4-1.6l9.3,28.1v1.6s2.6,1.8,2.6,1.8l1.2,2,1.1-.5-.9,4.1Z"/>
          <path class="st9" d="M755.3,320.2l-1.1-3,1.5-2,2.2-2,.6-1.1,2.3-2.8,1.1-2.1-4.6-3.2-.5-1.7h-1.5c0,0-.4-2.7-.4-2.7l.9-2.3-1.1-1.9,1.5-1.8,1.2-4.1,1.4-1,10.4,4.2.3,3.3-2.6,5.3,3.7-.2v12c0,0-1.1,2.8-1.1,2.8l-4.8,11.3-1.7-3.9h-.7s-2.2-.2-2.2-.2l-2.3-1.5-2.5-1.6Z"/>
          <path class="st9" d="M769.9,274.3l2.1,12.2,1.2,1.1-2.1,2.1.8,1.9.2.4-.7.6,16.4-7.2,4.2,2-10.7,6.3-4.5,2.5-7.5,1.9v-2.1s-.3-3.3-.3-3.3l-10.4-4.2-2.2-.6-2.2-.6-1.3-2.1v-1.8c0,0-1.8-1.2-1.8-1.2l-3.1-2-15.7,3.3-16.9,3.3-18.2,3.3-.7-4.3,8.2-11.2-.4-1.5-1.9-4.7,5-2.7,9.2-1.2,9.6-.5,7.3-7-1.9-6-1.6-1.9,9.1-13.4,4.2-4,16.8-3.9.6,3.1v2.2c0,0,1.3,4.5,1.3,4.5l1.3,2.2-.4,3.6,2,3.7v2.6c-.1,0,.1.5.1.5l1.8-.3,2.6,13.1.2,11.4Z"/>
          <path class="st9" d="M643.6,345.4l-1.3-11.2-1.7-15.6-1.7-14.6,6-.9,5.4-.7,4.4-.7,7.8,2.4h6s8.3-3.5,8.3-3.5l6.2-5.6,5.8-3,3.5,21.3-1.6,1.1.8,2v3.7c.1,0-.4,4.4-.4,4.4l-.7,3.6v1.7c.1,0-2.6,4.2-2.6,4.2l-1.3,1-1.5.7h-1.6s-2.3,3.1-2.3,3.1v2.9s-.1,1.5-.1,1.5l-1,.8-.4-1.7-1.6-.2-1.2,3.8.4,3.6-1.4,2.4-3,.8-2.5-1.2-1.3-2.2-2.4.6-2.4,1.3-2.4-.7-2.8.8-2.1-1-2.7-.9-3.8-3.1-2.3-1.4-4.2.2Z"/>
          <path class="st9" d="M791.6,281.1l.2-2.5-2.4-8.5,4.8-1.6,1.8,3.9,2.3,1.4,1.1,2.3-1,.5-6.9,4.4Z"/>
          <path class="st9" d="M674,408.8l-16.2,2v-3.5c0,0,2.5-1.3,2.5-1.3l.8-1.9,1.4-2.1,2.6-.8,2.9-1.1,2.8-1.9,1-1.5,2.3-1.6-.2-1.2,2.8-2.6,1.2,1.4,4.2-3.8h2.4c0,0,1.6-3,1.6-3l2.4-1.1-.5-2.3v-2.1s-4.9,1-4.9,1l4.9-1,21.4-2.7,25-4.4,13.3-2.8,11.8-2.6,1.5-.3,1.3,3.7,3.9,11.8-3.1,7.9-2.5,5.6-12.2,7.4-6.8,11-6.2,2.3-17.2-12.6-14.4,2.3-.3-1.8-2.4-2.4-1,1.1-.4-1.3-6.1.3-11.9,1.6-6.5,3.7-1.3.6Z"/>
          <path class="st9" d="M710.1,451.7l-2.4-.5-1.3-.5-.5-3-1.9-2.8-2.7-1.4.3-1.3-1.1-1.6-1.4-3.5-4.8-2.5-2.1-3.6-3.5-2.1-1.2-1.9-5.1-3.1-1.9-2.6-3.2-4.7-2.3-.7-3.9-2.2,1.6-3.3,1.3-1.6,1.3-.6,6.5-3.7,11.9-1.6,6.1-.3.4,1.3,1-1.1,2.4,2.4.3,1.8,14.4-2.3,17.2,12.6-5.6,7-.9,5.6-12.8,12.9-6.2,8.8Z"/>
          <path class="st9" d="M580.8,417.3l1.4-1.6-.5-4.7,1.9-2.2.3-2.8,2.2-1.7,1-2.4v-1.4c0,0,.8-3.9.8-3.9l.7-2.4.2-1.5,18.2-1.2-.2-2.6,2.5-.2.4.7,7.9-1.1,6.9-.5,7.4-.6,7.3-.4,3.6-.7,11.3-.6,8.5-1.5,3.5-1.4.6-.4-.6.4-3.5,1.4,18.8-2,1.5-.4,4.9-1v2.1s.5,2.3.5,2.3l-2.4,1.1-1.6,3h-2.4c0,0-4.2,3.7-4.2,3.7l-1.2-1.4-2.8,2.6.2,1.2-2.3,1.6-1,1.5-2.8,1.9-2.9,1.1-2.6.8-1.4,2.1-.8,1.9-2.6,1.3v3.5c0,0-6.8,1-6.8,1l-10,1-16.7,1.6-16.4,1.5-14.2.7-12.9.8Z"/>
          <path class="st9" d="M363.5,464.6l-1.3-2.8v-1.4s12.2,1.3,12.2,1.3l24.2,2.3,12.5,1,2.2-30.3,3.1-42.4,12.8.9,12.8.7,12.8.6-.7,16-.6,15.4,3.2,1.9,2,1.3,3.5-1,1.9,3.5,4.4,1.2,3.7.9h6.2c0-.1,1.6,3.8,1.6,3.8l4-1.6,3.7,2.5,3.6,1.1,2.1-2.3,2,2.8,4.3-.9,2.1.8,2.1-.7,2.4-1.2h2.8c0-.1,4.6.1,4.6.1l2.9-1.1,3.8,1.6,5.7,3.1.7,1.1,2.6-.3h3.1c0,0-.7,9.3-.7,9.3l1.2,17.1,2.2,1.9.9,2.4,1.2,3.7,1.7,3.7,1.3,2.2-1.1,5.9-.9,1.8-1.2,3.9,1.1,1.1v3.1c-.1,0-2,2.2-2,2.2l-1.4,2.4.9,1.8-11.5,3.9-12.7,12-14.2,6.9-7.5,7.3-.4.3-3.3,7.2-.3,5.4v5.6c0,0,.6,7.7.6,7.7l1.5,3.3,1.1,2.2-5.7.3-10.2-3.7-11.2-5.2-3.9-7.6-2.8-11.4-8-9.4-3.4-7.1-1.2-2.5-6.4-11.2-9.6-7-5.2-.2-6.2-.3-9.6,12-11.3-5.7-2.2-1.8-4.6-3.7-2.6-9-3.7-8.9-7.5-7.9-.7-.5-5.7-5.3-3.9-5.5-.5-.6Z"/>
          <path class="st9" d="M667,382.1l1.9-.9.8-1.6v-.2c.1,0,.3-.2.3-.2l3-2.2,1.1-1.8v-1.4c.1,0,3.8-2.5,3.8-2.5l3.2-4.1,1.1-1.4.9,2.7,1.3,1.1.4.2,2.2,1.1,2.5-1.9,1.1-.7,1.7,1,3.7-1.8.8-.3v-1s0-.5,0-.5l1.5.3,1.3-1.3h.2s1.7,0,1.7,0l1.9-1.7v-.8s0-.5,0-.5l-.5-1.9,1.1-3.1,2.1-2.4.2-2.4.8-1.8.7-1.4.7-3.8,1.8.9,2,.9,1.6-1,.4-1.6.9-2.1.5-1.6.3-.9,1.1.5,1.4-2.4,1.2-1.5.8-1,.4-.6.9-1.3.2-3.5v-.8s6.4,2.8,6.4,2.8l.5.2.8-3.3h.3c0,0,1.5.2,1.5.2l1.8.9-.4,1.5v.4c0,0,2.6.4,2.6.4l2.6,1.3,1.2,1.2.2.9v1.4c.1,0-.3.4-.3.4l-1.3,1.5-.7,3.8,1.8.5,1.9-1.1.8,1.7.3.5,9.3,3.3h.2c0,.1,3.6,15,3.6,15l3.8.5,2.5,5.1-1.5.3-11.8,2.6-13.3,2.8-25,4.4-21.4,2.7-4.9,1-1.5.4-18.8,2,3.5-1.4.6-.4ZM758.3,345.3l1.1-1.2,2.8-.9-4.1,14.2-1.3-.4,1.5-11.6Z"/>
          <path class="st9" d="M779.1,260.8l-9.5,2.1-2.6-13.1-1.8.3-.3-.5v-2.6c.1,0-1.8-3.7-1.8-3.7l.4-3.6-1.3-2.2-1.2-4.5v-2.2c0,0-.7-3.1-.7-3.1l10.7-2.8,9.6-2.5-.2,4.6,1.5,2v2.1c0,0-2,2.5-2,2.5l-1.8,1.2v1.7s.3,2.6.3,2.6l-.4,4.1-.5,1.6-.5,3.4.7,3.8-.2,1,.9,4.2-.3,2.4,1.3,1.4Z"/>
          <path class="st9" d="M692.1,313.3l-3.5-21.3,8-6.1h0c0-.1.7,4.2.7,4.2l18.2-3.3,16.9-3.3,15.7-3.3,3.1,2,1.7,1.2v1.8c0,0,1.4,2.1,1.4,2.1l2.2.6,2.2.6-1.4,1-1.2,4.1-1.5,1.8,1.1,1.9-.9,2.3.4,2.6h1.5c0,0,.5,1.8.5,1.8l4.6,3.2-1.1,2.1-2.3,2.8-.6,1.1-2.2,2-2.8-.2-.9.9-.5,1.4-10.6,2.2-10.3,2.1-8.6,1.7-3.7.8-11.1,1.9-12.5,2.1-2.4-14.7Z"/>
          <path class="st9" d="M682.2,365.8h-2.5c0,0-1.6-1.6-1.6-1.6l-2.1-1.8-1-2.4-1.8-2.2-.3-3.4-.5-1.5,3-.8,1.4-2.4-.4-3.6,1.2-3.8,1.6.2.4,1.7,1-.8v-1.5c0,0,.1-2.9.1-2.9l2.3-3.1h1.6s1.5-.6,1.5-.6l1.3-1,2.7-4.2v-1.7c-.1,0,.6-3.6.6-3.6l.6-4.4v-3.7c-.1,0-.9-2-.9-2l1.6-1.1,2.4,14.7,12.5-2.1,1.3,8.2,1.7-1.7,1.7-2.3,2.2-1.1,1.4-1.9h3.6s1.2-1.4,1.2-1.4l2-1.6,4,.5,2,2,1.3,1.8-.8,3.3-.5-.2-6.4-2.8v.8s-.2,3.5-.2,3.5l-.9,1.3-.4.6-.8,1-1.2,1.5-1.4,2.4-1.1-.5-.3.9-.5,1.6-.9,2.1-.4,1.6-1.6,1-2-.9-1.8-.9-.7,3.8-.7,1.4-.8,1.8-.2,2.4-2.1,2.4-1.1,3.1.5,1.9v.5c0,0,0,.8,0,.8l-1.9,1.7h-1.7s-.2,0-.2,0l-1.3,1.3-1.5-.3v.5c0,0,0,1,0,1l-.8.3-3.7,1.8-1.7-1-1.1.7-2.5,1.9-2.2-1.1-.4-.2-1.3-1.1-.9-2.7Z"/>
          <path class="st9" d="M570.6,450.5l.5-3.2-1.8-4.2.2-3.9,2.6-5.8,1.2-3.4,2.3-2.3,1.3-1,1.6-4.5v-2.3c-.1,0,2.2-1.2,2.2-1.2v-1.4c0,0,12.9-.8,12.9-.8l14.2-.7,1.3,3.1-.7,21-.2,25.9,2.3,24.5-10.5,1.9-5.4,2.8-.2-.3-.5-1.5-.5-2.7-1.9-1.8-1-1.9.7-2.8.2-2.6-13,.7-12,.2-.9-4.1,1.7-1.9,1.1-3.9,1.1-3.5,2.5-2.6.4-3,1.8-1.7-1.9-2.8.4-1.9-2.1-3.2,1.1-2.4-1.1-.9Z"/>
          <path class="st9" d="M605.6,370.1l.2-3.3,1.4-4.4,2.3-3.8.6-2.7,1-1.2-.2-2.1-.9-2.8-1.1-1,.9-4.6-1.5-18.7-1.7-18.6,1.2,1,4-.5,3.1-2.1,12.6-1.2,11.2-1.4v1.2c.1,0,1.9,14.6,1.9,14.6l1.7,15.6,1.3,11.2-.7.8,1.3,3.2-.3,1.3-2.1.2-1.7,1.7-3-.4v3.2s-1.6,1.4-1.6,1.4l-1.3,2.9-1.7.6-2.2,5.1-2.6-1.1-1-1.8-1.8,3.4-1.3,1.9-2.8-1.5-2.8,1.8-.8,1.6-4.1-2.1-2.4,2-3.4-1v1.8s-1.7-.3-1.7-.3Z"/>
          <path class="st9" d="M656.5,476l-.9-1.7-1.1-1.9v-2.8s0-2.9,0-2.9l-1-2.9v-5.1c.1,0,2.1-3.1,2.1-3.1l-1.6-2.7-2.5-4.8-4.9-15.6-5.6-19.6,10-1,6.9-1,16.2-2-1.3,1.6-1.6,3.3,3.9,2.2,2.3.7,3.2,4.7,1.9,2.6,5.1,3.1,1.2,1.9,3.5,2.1,2.1,3.6,4.8,2.5,1.4,3.5,1.1,1.6-.3,1.3,2.7,1.4,1.9,2.8.5,3,1.3.5,2.4.5-4.8,10.3-.4,11.7-2.9.2-3-.8-1.5.8.8,5.5-1.6,1.7-1.5-2.7-22.3.7-14,.9-2.5-4.1Z"/>
          <path class="st9" d="M769.9,274.3l8.9-1.9,10.7-2.3,2.4,8.5-.2,2.5-4.9,2.1-6.6,2.5-1.9,1.6-6.1,4.7-.2-.4-.8-1.9,2.1-2.1-1.2-1.1-2.1-12.2Z"/>
          <path class="st9" d="M379.6,552.3l2.8,1.3,2.4,2.2,4,5.5-.4,1-5.9,3.4-4.9,2.5-2.2,2.7-3.8-2.3.4-4.5-2.6-5.8.8-1.8,2.7-2.6-1.2-3.1,1-1.5,1.2.3,5.7,2.7ZM370.5,541.4l-1.2,2-5.1,1.1-2.6-3.4-1.8-1.2-.2-1.1,1.6-1.4,5.3,1.5,3.9,2.4ZM359.1,534.9l-.6,1.8-8-.5,1.2-1.9,7.4.7ZM339.9,526.2l1.4,1.1,4.3,5.3-.8.9-1.2-.3-5.3-.6-1.7-3.7-.6-.5,3.9-2.3ZM319.9,518.2l.4,3.7-1.8,1.6-5-3,.8-1.1,2.2-1.6,3.5.4Z"/>
          <path class="st9" d="M623,491.1l.9-2.3.4-3.3-3.5-3.5.2-1.3,7.7-1.7,27.8-3.1,2.5,4.1,14-.9,22.3-.7,1.5,2.7,1.6-1.7-.8-5.5,1.5-.8,3,.8,2.9-.2,4,10.7,6.8,12.7,8,10.3,1.3,6.7,9.7,17.2,1.4,10.6.3,6.3-2,10.2-4,2.7-7.5-.9-1.4-2.8-1.9-3.7-6-2.8-4.5-5.8-5.2-6.6-8.4-11.1-2.9-5.9,1.4-11.1-5.2-8.1-12.6-11.9-5.7-1.8-12.9,9-2.6-.5-7.7-6.7-9-3-8.7,1.9-6.7,1.6Z"/>
          <path class="st9" d="M531.9,451.9l12.9-.3,14.6-1.1h11.3s1.1.9,1.1.9l-1.1,2.4,2.1,3.2-.4,1.9,1.9,2.8-1.8,1.7-.4,3-2.5,2.6-1.1,3.5-1.1,3.9-1.7,1.9.9,4.1,12-.2,13-.7-.2,2.6-.7,2.8,1,1.9,1.9,1.8.5,2.7.5,1.5.2.3,2.6,4.1.3,6.5,3.3,2.9-2.6,2.4-5.4-2.1-5.1,3.5h-10.1s-11-7.9-11-7.9l-12.1,2.5-10.3-3.5-8.7,1.5-.9-1.8,1.4-2.4,1.9-2.2v-3.1c.1,0-1-1.1-1-1.1l1.2-3.9.9-1.8,1.1-5.9-1.3-2.2-1.7-3.7-1.2-3.7-.9-2.4-2.2-1.9-1.2-17.1Z"/>
          <path class="st9" d="M789.4,270.1l-10.7,2.3-8.9,1.9-.2-11.4,9.5-2.1,13.8-3.4.8-1.9,2.1-1.7h1.4s2.1,8.3,2.1,8.3l6.1,7.2,4.9-.9-1-1.9-1.9-3.5,4.5,2.4.2,2.9v1.8s-5.4,3.6-5.4,3.6l-1.6,1-5.5,1.2-1.1-2.3-2.3-1.4-1.8-3.9-4.8,1.6Z"/>
          <path class="st9" d="M589,392.8l2.7-2,1.9-1.5-.3-2.5.2-1.7-.7-2.4.9-1.6,3.3.6,3.2,1.3,1.5-1.5-.8-3.4,2.7-1.6,2.2-1.4-1.3-1.4,1.3-2.3-.3-1.2,1.7.3v-1.8s3.4,1,3.4,1l2.4-2,4.1,2.1.8-1.6,2.8-1.8,2.8,1.5,1.3-1.9,1.8-3.4,1,1.8,2.6,1.1,2.2-5.1,1.7-.6,1.3-2.9,1.6-1.4v-3.2s2.9.4,2.9.4l1.7-1.7,2.1-.2.3-1.3-1.3-3.2.7-.8,4.2-.2,2.3,1.4,3.8,3.1,2.7.9,2.1,1,2.8-.8,2.4.7,2.4-1.3,2.4-.6,1.3,2.2,2.5,1.2.5,1.5.3,3.4,1.8,2.2,1,2.4,2.1,1.8,1.6,1.7h2.5c0,0-1.1,1.3-1.1,1.3l-3.2,4.1-3.6,2.5v1.4c-.1,0-1.2,1.8-1.2,1.8l-3,2.2v.2c-.1,0-.3.2-.3.2l-.8,1.6-1.9.9-.6.4-3.5,1.4-8.5,1.5-11.3.6-3.6.7-7.3.4-7.4.6-6.9.5-7.9,1.1-.4-.7-2.5.2.2,2.6-18.2,1.2Z"/>
          <path class="st9" d="M798.1,249.8l-1.1.5-1.2-2-2.7-1.8v-1.6s-9.2-28.1-9.2-28.1l4-3.8.9-3.9,1-4.1v-4.9s0-8.1,0-8.1l3.2-9.2,1.5-4.7,3.6,2.3,1.1.7,6.3-4.7,6,3,3.8,12.5,2.6,8.5,9.7,6.4,3.4,4.5-9.3,11-9.7,8.6-10.4,7.9-3.4,10.9Z"/>
          <path class="st9" d="M607.9,415.8l16.4-1.5,16.7-1.6,5.6,19.6,4.9,15.6,2.5,4.8,1.6,2.7-1.9,3.1v5.1c-.1,0,.9,2.9.9,2.9v2.9s0,2.8,0,2.8l1.1,1.9.9,1.7-27.8,3.1-7.7,1.7-.2,1.3,3.5,3.5-.4,3.3-.9,2.3-12.3-.7-2.3-24.5.2-25.9.7-21-1.3-3.1Z"/>
          <path class="st9" d="M762.2,343.2l-2.8.9-1.1,1.2-7.7-4.7-4.2-12.8-1,7.2,4.8,9.6-8.6-.8-.3-.5-.8-1.7-1.9,1.1-1.8-.5.7-3.8,1.3-1.5.4-.4v-1.4c-.1,0,1.2-1.7,1.2-1.7l-1.9-1.4-.8,1-2.6-1.3-2.7-.4v-.4c0,0,.4-1.5.4-1.5l-1.8-.9h-1.5c0-.1-.3-.2-.3-.2l-1.3-1.8-2-2-4-.5-2,1.6-1.2,1.5h-3.6s-1.4,1.9-1.4,1.9l-2.2,1.1-1.7,2.3-1.7,1.7-1.3-8.2,11.1-1.9,3.7-.8,8.6-1.7,10.3-2.1,10.6-2.2,5.2,20,8.1-1.8.2.7-2.6,7.1Z"/>
          <path class="st9" d="M764.6,335.5l-8.1,1.8-5.2-20,.5-1.4.9-.9,2.8.2-1.5,2,1.1,3,4.4,7.9,3.6,2.2,1.3,5.2Z"/>
        </g>
        <g>
          <path class="st10" d="M587.3,400.6v1.4c0,0-1.1,2.4-1.1,2.4l-2.2,1.7-.3,2.8-1.9,2.2.5,4.7-1.4,1.6v1.4c0,0-2.4,1.2-2.4,1.2v2.3c.1,0-1.5,4.5-1.5,4.5l-1.3,1-2.3,2.3-1.2,3.4-2.6,5.8-.2,3.9,1.8,4.2-.5,3.2h-11.3s-14.6,1.1-14.6,1.1l-12.9.3.7-9.2h-3.1c0,0-2.6.2-2.6.2l-.7-1.1v-14.2c.1,0,.2-15.7.2-15.7l-2.9-17,15.6-.2,14.1-.3,13.4-.6h14.7c0,.1,1.1,2,1.1,2l-1.4,1.9-1.2,1.9-.7,1.6,8.3-.5Z"/>
          <path class="st10" d="M429.2,385.2l1.5-23.7,1.6-25,21.2,1.2,15.8.6,28,.5h16.8s2.9,2.2,2.9,2.2h1.6s.3,2.3.3,2.3l-1.6,3,.8,1.5,1.6,3.4,3.2,1.5v17.4c0,0,.3,17.4.3,17.4h-11.2c0,.1-22.8,0-22.8,0l-22.9-.5-12.5-.5-12.7-.6-12-.7Z"/>
          <path class="st10" d="M417.1,384.4l12.2.8,12,.7,12.7.6,12.5.5,22.9.5h22.8c0,0,11.2,0,11.2,0v7.4c0,0,2.9,17,2.9,17v15.7c0,0-.2,14.2-.2,14.2l-5.7-3.1-3.8-1.6-2.9,1.1-4.6-.3h-2.8c0,.1-2.4,1.4-2.4,1.4l-2.1.7-2.1-.8-4.3.9-2-2.8-2.1,2.3-3.6-1.1-3.7-2.5-4,1.6-1.6-3.9h-6.2c0,.1-3.7-.8-3.7-.8l-4.4-1.2-1.9-3.5-3.5,1-2-1.3-3.2-1.9.6-15.4.7-16-12.8-.6-12.8-.7-12.8-.9.6-8Z"/>
          <path class="st10" d="M587.3,400.6l-8.3.5.7-1.6,1.2-1.9,1.4-1.9-1.1-1.9h-14.7c0-.1-13.4.5-13.4.5l-14.1.3-15.6.2v-7.4c0,0-.2-17.4-.2-17.4v-17.4c0,0-3.3-1.5-3.3-1.5l-1.6-3.4-.8-1.5,1.6-3-.3-2.3h-1.6s-2.9-2.2-2.9-2.2l-1.6-3.4-1.9-2.1-2.1-2.5-.2-1.4h10.8c0,0,10.8-.3,10.8-.3l13.8-.5,13.2-.9,2.5,2.5,1.6,1.3-.8,4,1.3,4.9,2.1,3.2,2.5,2.6,3,2,1.2.6,1.1,3,.3,2.7,1.5.6,2.3-1.2,2.4,2.5-.5,3.1-1,2.4-.6,2.9,1.9,2.4,2.6,2h1.5s3.5,3.3,3.5,3.3l1.3.5,1.1,3.8-.2,2.5,1.8,3.9,1.5-.5,2.3,2.3-.2,1.7.3,2.5-1.9,1.5-2.7,2-.2,1.5-.7,2.4-.7,3.9Z"/>
          <path class="st10" d="M561.3,331.6l.2-2.9,3-2.6.7-2.5,1.4-2.8-.6-2.4-1.6-1.2.9-2.9,4-.9,2.7-1.1.7-1.3,1.9-3.7.3-4.4-1.3-1.3-1.9-1.1-.6-1.8-1.4-.7-.8-1.2,12.1-.7,12.2-.9,9-.6.5,4.2,4,8.2,1.7,18.6,1.5,18.7-.9,4.6,1.1,1,.9,2.8.2,2.1-1,1.2-.6,2.7-2.3,3.8-1.4,4.4-.2,3.3.3,1.2-1.3,2.3,1.3,1.4-2.2,1.4-2.7,1.6.8,3.4-1.5,1.5-3.2-1.3-3.3-.6-.9,1.6.7,2.4-2.3-2.3-1.5.5-1.8-3.9.2-2.5-1.1-3.8-1.3-.5-3.5-3.2h-1.5s-2.6-2.1-2.6-2.1l-1.9-2.4.6-2.9,1-2.4.5-3.1-2.4-2.5-2.3,1.2-1.5-.6-.3-2.7-1.1-3-1.2-.6-3-2-2.5-2.6-2.1-3.2-1.3-4.9.8-4Z"/>
          <path class="st10" d="M500.7,282.4h12.7s15.8-.5,15.8-.5l16.9-.5,15.2-.4.2.8,1.6,2.5-1,1.3.2,3.3.7,1.5.7,2.6,4,1.3,1.2,2.4.8,1.2,1.4.7.6,1.8,1.9,1.1,1.3,1.3-.3,4.4-1.9,3.7-.7,1.3-2.7,1.1-4,.9-.9,2.9,1.6,1.2.6,2.4-1.4,2.8-.7,2.5-3,2.6-.2,2.9-1.6-1.3-2.5-2.5-13.2.9-13.8.5-10.8.2h-10.8c0,0-.9-2.8-.9-2.8l.5-2.9-.3-2.9-1.2-4.7-.8-1.9-.9-.6v-3.7s-.8-2.6-.8-2.6l-2.1-3v-1.4s-.8-2.6-.8-2.6l-.5-1.7v-1.5s-1.8-1.8-1.8-1.8l.9-2.6.6-2.6.3-1.8-1.5-2.2v-3.8s1.5,0,1.5,0Z"/>
          <path class="st10" d="M601,252.3h-.3c0-.1,0,0,0,0l-1.6-1.8.5-2.6h-2.5c0,0,.4-2.6.4-2.6l.6-1.4-1.2-2.1-2.7-.9-.9-2.5h-2.2c0,0-3,.1-3,.1l-6.7-2.4-9.9-2.2-1-2.8-1.8-.4-.7.3h-.2c0-.1.2,0,.2,0l8.2-4.6,8.5-5.8,9.2-6-2.9,8.7,6.5,1.5,8.3,5.4,9.4-4.5,10.7-2.7,2.8,4.2,3.4.3,3.1.2,6.3,5.7-9.6,2.6h-.3s-9-.7-9-.7l-8.3,4.2-7.4,2.1-5.6,10.8ZM654.6,301.7l-4.4.7-5.4.7-6,.9v-1.2c-.1,0-11.3,1.4-11.3,1.4l-12.6,1.2,2.1-2.4,3.9-8.4-.6-10.6-4.9-9.6v-6.9c0,0,2.1-8.2,2.1-8.2l2.2-5.6,4.1-4.3,1.6,5.2,1.2-8.1,2.3-1.9.7-6.3,10,2.1,9.1,5.1,1.8,7.1v7.5s-5.4,7.2-5.4,7.2l1.1,4,2.3-.2,6-8,4.5,1,3.4,8.9,1.5,6.4-1.6,3.6-2.7,6.1-1,3.2-.7,2.7-3.3,6.7Z"/>
          <path class="st10" d="M561.2,281l-.4-1.9-.2-3.8-.5-1.3-4-2.1-3-2.6-1-1.7-1.2-1-3.8-2.2h-1.3c0,0-3.5-3-3.5-3l.3-3.6v-4.4c-.1,0,.6-4.1.6-4.1l-2.6-2.9,1.5-2.9,2.4-1.7,2.7-1.9h.3c0,.1-.5-8.8-.5-8.8l3-1.1,10.9-3.8,6.9,4.9h.2c0,.1.7-.2.7-.2l1.8.4,1,2.8,9.9,2.2,6.7,2.4,3-.2h2.2c0,0,.9,2.6.9,2.6l2.7.9,1.2,2.1-.6,1.4-.4,2.6h2.5c0,0-.5,2.6-.5,2.6l1.6,1.8h0c0-.1.3,0,.3,0h-.1c0,.1-3.9,6.4-3.9,6.4l1.8,1.8,7.3-11.1,1.7-.3-4.7,12.9-1.7,11.4-1.3,9.3,2,7.7v4s-9,.6-9,.6l-12.2.9-12.1.7-1.2-2.4-4-1.3-.7-2.6-.7-1.5-.2-3.3,1-1.3-1.6-2.5-.2-.8Z"/>
        </g>
        <g>
          <path class="st11" d="M550,229.8l-3,1.1.5,9h-.3c0-.1-2.7,1.7-2.7,1.7l-2.4,1.7-1.5,2.9,2.6,2.9-.7,4.1v4.4c.1,0-.2,3.6-.2,3.6l3.5,2.9h1.3c0,0,3.8,2.3,3.8,2.3l1.2,1,1,1.7,3,2.6,4,2.1.5,1.3.2,3.8.4,1.9-15.2.4-16.9.5-15.8.5h-12.7s.2-15.1.2-15.1l-1.2-15.5-2-1.2-1-2.5.6-2.2,2.5-1.8.2-2.3v-3s-.5-2.5-.5-2.5l-1-2.6-.6-3.3v-3.5s-.4-1-.4-1l-.4-4.6v-2.2c-.1,0-.2-1.9-.2-1.9l-.5-3.3-1.2-3.3-1.2-3v-2.8c-.1,0-.2-3.1-.2-3.1l.3-2,.2-1.9-.9-2.3-.3-1.5h11.4c0,0,10.8,0,10.8,0v-4.2s0-1.9,0-1.9l1.8-.2h1.8s.6,2.7.6,2.7l1.3,6,3.4,2.6,4.5.5,3.1.3,11.1,2.2,7.1,3,3.4,1.5,3.3-1,5.4-1.5,13.4,3.2-10.7,6-7.5,6.8-7.1,7.1v2.3Z"/>
          <path class="st11" d="M432.3,336.5v-.4s1-15.8,1-15.8l-24-1.8,2.7-32,22.7,1.7,17.4,1,23.4.9,3,2.1,4.4,1.3.9-.7h2.7c0,0,4.3,0,4.3,0l3,2.1,3.2,1.4.4,1.4,1.1.7,2,.3.5,1.7.8,2.6v1.4s2.1,3,2.1,3l.8,2.6v3.7s.9.6.9.6l.8,1.9,1.2,4.7.3,2.9-.5,2.9.9,2.9.2,1.4,2.1,2.5,1.9,2.1,1.6,3.4h-16.8s-28-.5-28-.5l-15.8-.6-21.2-1.2Z"/>
          <path class="st11" d="M492.8,194.2l.3,1.5.9,2.3-.2,1.9-.3,2v3.1c.1,0,.2,2.8.2,2.8l1.2,3,1.2,3.3.5,3.3v1.9c.1,0,.2,2.2.2,2.2l.4,4.6.4,1v3.5s.5,3.3.5,3.3l1,2.6.6,2.5v3s-21.2.5-21.2.5l-18.1-.6-22.9-1.2-21.2-1.4,1.1-19.4,2.2-29h.6s36.1,2.5,36.1,2.5l36.4,1.1Z"/>
          <path class="st11" d="M419.7,190.7l-2.2,29-1.1,19.4-1.8,14.6-18.9-2.1-20.2-2.1-17.5-2.4-22-3.1-1.3,8-.3.7-1.2-1.2-.7-2.3-1.2-.8-2.1,3h-2.6s-6.3-2.1-6.3-2.1l-.6,1.6-3.5-1.3-2.5,1.9-1.3-4.5-.9-2.5-2.3-.8-.4-1.2v-4.3s-1.6-2.4-1.6-2.4l-.4-5.2-.9-2.4-1.2-.6-1.6,1.9-2.5,1.5-1.7-2,.6-4,1.5-.7v-4.3s1.7-3.8,1.7-3.8l2-3.4-3.4-.8-2.2-2.8-2.1-5.4-1.3-2.8-2.1-2-1.6-3,.6-2.8-1.9-4.8,2.7-16.4,31.8,6.3,31.1,5.1,31.7,4.2,31.3,3.2Z"/>
          <path class="st11" d="M499.9,241.9l-.2,2.3-2.5,1.8-.6,2.2,1,2.5,2,1.2,1.2,15.5-.2,15.1h-1.5s0,3.8,0,3.8l1.5,2.2-.3,1.8-.6,2.6-.9,2.6,1.8,1.8v1.5s-2-.3-2-.3l-1.1-.7-.4-1.4-3.2-1.4-3-2.1h-4.3c0,0-2.7,0-2.7,0l-.9.7-4.4-1.3-3-2.1-23.4-.9-17.4-1-22.7-1.7,2.5-32.8,1.8-14.6,21.2,1.4,22.9,1.2,18.1.6,21.2-.5Z"/>
          <path class="st11" d="M334.4,252.6l.3-.7,1.3-8,22,3.1,17.5,2.4,20.2,2.1,18.9,2.1-2.5,32.8-2.7,32-12-.9-23.9-2.5-11.9-1.5-11.9-1.6-23.7-4,2.5-15.6,6.3-39.5-.3-.3Z"/>
        </g>
      </g>
      <path class="st15" d="M730.1,249.1l1.6,1.9,1.9,6-7.3,7-9.6.5-9.2,1.2-5,2.7-2.5-2.8,4.7-3.5,11.2-2.1,10.3-2.1,2.4-6.9,1.1-1.5.4-.5ZM657.9,295v1.7c0,0,1.5,2.1,1.5,2.1l4.5,2,2.9-.4,12.3-10.6,11.7-4.5,13.7-10.5v-1.7s.4,1.5.4,1.5l-8.2,11.4-8,6.1-5.8,3-6.2,5.6-8.3,3.5h-6s-7.8-2.4-7.8-2.4l3.3-6.7ZM575.2,207.7l3.5-.4,9.3-5.2,10.6,4.9,11.3,5,9.3,4.3,9,4.2,1.6,4.1,2.7,1.2-.5,1.7-3.4-.3-2.8-4.2-10.7,2.7-9.4,4.5-8.3-5.4-6.5-1.5,2.9-8.7-9.2,6-8.5,5.8-8.2,4.6-7-5.1-10.9,3.8v-2.3c0,0,7-7.1,7-7.1l7.5-6.8,10.7-6ZM725.6,534.4h-3.2s-.4-3.9-.4-3.9h3.2s.4,3.9.4,3.9ZM313.3,300.8v3.2c0,0-1.2,4.5-1.2,4.5l-5.2-5.4-.2-.7-.7-7.7,2.8,3.6,1.9,2,2.4-1,.2,1.4ZM629.6,238.2l1.8-2.3h.3s9.6-2.6,9.6-2.6l-6.3-5.7,1.9-1.9,1,3.6,2.5,2.3,3-.4,2,1.7-1.1,3,12.6,6,4.5,14,4.3,13.6-1.9,9.8-1.5-6.4-3.4-8.9-4.5-1-6,8-2.3.2-1.1-4,5.4-7.2v-7.5s-1.8-7.1-1.8-7.1l-9.1-5.1-10-2.1ZM631.4,236l-1.8,2.3-.7,6.3-2.3,1.9-1.2,8.1-1.6-5.2-4.1,4.3-2.2,5.6-2.2,8.2v6.9c0,0,5,9.6,5,9.6l.6,10.6-3.9,8.4-2.1,2.4-3.1,2.1-4,.5-1.2-1-4-8.2-.5-4.2v-4s-2.1-7.7-2.1-7.7l1.3-9.3,1.7-11.4,4.7-12.9-1.7.3-7.3,11.1-1.8-1.8,3.9-6.2,5.8-10.9,7.4-2.1,8.3-4.2,9,.8Z"/>
    </g>
  </g>
  <g>
    <g pointer-events="all">
      <rect class="st15" x="933.7" y="100" width="54" height="105" shape-rendering="crispEdges"/>
      <g class="st14">
        <g>
          <text class="st5" transform="translate(935.7 118.2)"><tspan x="0" y="0">Cluster</tspan></text>
          <g>
            <g>
              <text class="st7" transform="translate(973.7 137.4)"><tspan x="0" y="0">1</tspan></text>
              <path class="st12" d="M947.7,126.7v12h12v-12h-12Z"/>
              <rect class="st17" x="933.7" y="123.2" width="47.6" height="19"/>
            </g>
            <g>
              <text class="st7" transform="translate(973.7 156.4)"><tspan x="0" y="0">2</tspan></text>
              <path class="st3" d="M947.7,145.7v12h12v-12h-12Z"/>
              <rect class="st17" x="933.7" y="142.2" width="47.6" height="19"/>
            </g>
            <g>
              <text class="st7" transform="translate(973.7 175.4)"><tspan x="0" y="0">3</tspan></text>
              <path class="st2" d="M947.7,164.7v12h12v-12h-12Z"/>
              <rect class="st17" x="933.7" y="161.2" width="47.6" height="19"/>
            </g>
            <g>
              <text class="st7" transform="translate(973.7 194.4)"><tspan x="0" y="0">4</tspan></text>
              <path class="st4" d="M947.7,183.7v12h12v-12h-12Z"/>
              <rect class="st17" x="933.7" y="180.2" width="47.6" height="19"/>
            </g>
          </g>
        </g>
      </g>
      <polygon class="st13" points="933.7 100 933.7 100 933.7 100 933.7 100 933.7 100 933.7 100 933.7 100 933.7 100 933.7 100"/>
    </g>
    <text class="st6" transform="translate(50 50)"><tspan x="0" y="0">K-Means Clustering Results - ERA5, Four Clusters</tspan></text>
  </g>
</svg>