<svg class="main-svg" xmlns="http://www.w3.org/2000/svg" xmlns:xlink="http://www.w3.org/1999/xlink" width="1000" height="600" style="" viewBox="0 0 1000 600"><rect x="0" y="0" width="1000" height="600" style="fill: rgb(255, 255, 255); fill-opacity: 1;"/><defs id="defs-e20cfd"><g class="clips"><clipPath id="clipe20cfdxyplot" class="plotclip"><rect width="730" height="420"/></clipPath><clipPath class="axesclip" id="clipe20cfdx"><rect x="80" y="0" width="730" height="600"/></clipPath><clipPath class="axesclip" id="clipe20cfdy"><rect x="0" y="100" width="1000" height="420"/></clipPath><clipPath class="axesclip" id="clipe20cfdxy"><rect x="80" y="100" width="730" height="420"/></clipPath></g><g class="gradients"/><g class="patterns"/></defs><g class="bglayer"/><g class="layer-below"><g class="imagelayer"/><g class="shapelayer"/></g><g class="cartesianlayer"><g class="subplot xy"><g class="layer-subplot"><g class="shapelayer"/><g class="imagelayer"/></g><g class="minor-gridlayer"><g class="x"/><g class="y"/></g><g class="gridlayer"><g class="x"><path class="xgrid crisp" transform="translate(134.07,0)" d="M0,100v420" style="stroke: rgb(235, 240, 248); stroke-opacity: 1; stroke-width: 1px;"/><path class="xgrid crisp" transform="translate(269.26,0)" d="M0,100v420" style="stroke: rgb(235, 240, 248); stroke-opacity: 1; stroke-width: 1px;"/><path class="xgrid crisp" transform="translate(404.44,0)" d="M0,100v420" style="stroke: rgb(235, 240, 248); stroke-opacity: 1; stroke-width: 1px;"/><path class="xgrid crisp" transform="translate(539.63,0)" d="M0,100v420" style="stroke: rgb(235, 240, 248); stroke-opacity: 1; stroke-width: 1px;"/><path class="xgrid crisp" transform="translate(674.81,0)" d="M0,100v420" style="stroke: rgb(235, 240, 248); stroke-opacity: 1; stroke-width: 1px;"/></g><g class="y"><path class="ygrid crisp" transform="translate(0,495.57)" d="M80,0h730" style="stroke: rgb(235, 240, 248); stroke-opacity: 1; stroke-width: 1px;"/><path class="ygrid crisp" transform="translate(0,426.87)" d="M80,0h730" style="stroke: rgb(235, 240, 248); stroke-opacity: 1; stroke-width: 1px;"/><path class="ygrid crisp" transform="translate(0,358.17)" d="M80,0h730" style="stroke: rgb(235, 240, 248); stroke-opacity: 1; stroke-width: 1px;"/><path class="ygrid crisp" transform="translate(0,289.48)" d="M80,0h730" style="stroke: rgb(235, 240, 248); stroke-opacity: 1; stroke-width: 1px;"/><path class="ygrid crisp" transform="translate(0,220.78)" d="M80,0h730" style="stroke: rgb(235, 240, 248); stroke-opacity: 1; stroke-width: 1px;"/><path class="ygrid crisp" transform="translate(0,152.07999999999998)" d="M80,0h730" style="stroke: rgb(235, 240, 248); stroke-opacity: 1; stroke-width: 1px;"/></g></g><g class="zerolinelayer"/><g class="layer-between"><g class="shapelayer"/><g class="imagelayer"/></g><path class="xlines-below"/><path class="ylines-below"/><g class="overlines-below"/><g class="xaxislayer-below"/><g class="yaxislayer-below"/><g class="overaxes-below"/><g class="plot" transform="translate(80,100)" clip-path="url(#clipe20cfdxyplot)"><g class="scatterlayer mlayer"><g class="trace scatter tracec400fd" style="stroke-miterlimit: 2; opacity: 1;"><g class="fills"><g><path class="js-fill" d="M0,241L27.04,240.83L54.07,230.69L81.11,223.48L108.15,213.35L135.19,203.22L162.22,199.61L216.3,179.17L243.33,179L270.37,165.43L297.41,161.83L324.44,151.69L351.48,137.78L378.52,137.96L405.56,124.04L432.59,113.91L459.63,107.04L486.67,93.13L513.7,89.87L567.78,69.26L594.81,62.39L621.85,55.52L648.89,45.22L675.93,38.35L702.96,34.57L730,21L730,255.08L702.96,258.34L675.93,268.65L648.89,268.48L621.85,275.35L594.81,278.78L567.78,278.78L540.74,285.65L513.7,295.96L486.67,295.96L459.63,303L378.52,313.13L351.48,323.43L324.44,327.04L297.41,333.74L270.37,337.17L243.33,344.04L216.3,354.35L189.26,357.78L162.22,364.65L135.19,364.65L108.15,374.96L81.11,378.39L54.07,388.7L27.04,392.13L0,399Z" style="fill: rgb(128, 221, 255); fill-opacity: 0.2; stroke-width: 0;"/></g></g><g class="errorbars"/><g class="lines"><path class="js-line" d="M0,241L27.04,240.83L54.07,230.69L81.11,223.48L108.15,213.35L135.19,203.22L162.22,199.61L216.3,179.17L243.33,179L270.37,165.43L297.41,161.83L324.44,151.69L351.48,137.78L378.52,137.96L405.56,124.04L432.59,113.91L459.63,107.04L486.67,93.13L513.7,89.87L567.78,69.26L594.81,62.39L621.85,55.52L648.89,45.22L675.93,38.35L702.96,34.57L730,21L730,255.08L702.96,258.34L675.93,268.65L648.89,268.48L621.85,275.35L594.81,278.78L567.78,278.78L540.74,285.65L513.7,295.96L486.67,295.96L459.63,303L378.52,313.13L351.48,323.43L324.44,327.04L297.41,333.74L270.37,337.17L243.33,344.04L216.3,354.35L189.26,357.78L162.22,364.65L135.19,364.65L108.15,374.96L81.11,378.39L54.07,388.7L27.04,392.13L0,399" style="vector-effect: none; fill: none; stroke: rgb(255, 255, 255); stroke-opacity: 0; stroke-width: 2px; opacity: 1;"/></g><g class="points"/><g class="text"/></g><g class="trace scatter trace11c1ae" style="stroke-miterlimit: 2; opacity: 1;"><g class="fills"/><g class="errorbars"/><g class="lines"><path class="js-line" d="M0,323.43L54.07,306.26L81.11,302.83L108.15,292.52L135.19,285.65L162.22,282.22L189.26,271.91L216.3,265.04L243.33,261.61L270.37,253.02L297.41,247.87L324.44,241L351.48,232.41L378.52,223.83L405.56,220.39L432.59,210.09L459.63,206.65L486.67,199.78L513.7,189.48L540.74,186.04L567.78,179.17L594.81,172.3L621.85,168.87L648.89,158.56L675.93,156.85L702.96,144.82L730,141.39" style="vector-effect: none; fill: none; stroke: rgb(128, 221, 255); stroke-opacity: 1; stroke-width: 2px; opacity: 1;"/></g><g class="points"/><g class="text"/></g><g class="trace scatter trace9afd29" style="stroke-miterlimit: 2; opacity: 1;"><g class="fills"><g><path class="js-fill" d="M0,241L27.04,240.83L54.07,230.69L81.11,216.96L108.15,206.65L135.19,199.78L162.22,199.61L189.26,189.48L216.3,175.57L243.33,182.26L270.37,168.7L297.41,165.43L324.44,158.39L351.48,155.13L378.52,155.13L405.56,144.82L432.59,137.96L486.67,124.22L513.7,120.78L540.74,113.74L567.78,110.3L621.85,103.61L648.89,93.3L675.93,100.17L702.96,96.57L730,96.57L730,309.7L675.93,316.56L648.89,313.3L621.85,313.13L594.81,316.56L567.78,313.13L540.74,316.56L513.7,320L486.67,316.56L405.56,326.87L378.52,323.61L351.48,330.3L324.44,333.91L270.37,340.61L243.33,350.91L216.3,357.78L189.26,357.95L162.22,364.65L135.19,364.82L81.11,378.39L54.07,388.7L27.04,392.13L0,399Z" style="fill: rgb(187, 128, 255); fill-opacity: 0.2; stroke-width: 0;"/></g></g><g class="errorbars"/><g class="lines"><path class="js-line" d="M0,241L27.04,240.83L54.07,230.69L81.11,216.96L108.15,206.65L135.19,199.78L162.22,199.61L189.26,189.48L216.3,175.57L243.33,182.26L270.37,168.7L297.41,165.43L324.44,158.39L351.48,155.13L378.52,155.13L405.56,144.82L432.59,137.96L486.67,124.22L513.7,120.78L540.74,113.74L567.78,110.3L621.85,103.61L648.89,93.3L675.93,100.17L702.96,96.57L730,96.57L730,309.7L675.93,316.56L648.89,313.3L621.85,313.13L594.81,316.56L567.78,313.13L540.74,316.56L513.7,320L486.67,316.56L405.56,326.87L378.52,323.61L351.48,330.3L324.44,333.91L270.37,340.61L243.33,350.91L216.3,357.78L189.26,357.95L162.22,364.65L135.19,364.82L81.11,378.39L54.07,388.7L27.04,392.13L0,399" style="vector-effect: none; fill: none; stroke: rgb(255, 255, 255); stroke-opacity: 0; stroke-width: 2px; opacity: 1;"/></g><g class="points"/><g class="text"/></g><g class="trace scatter traceeee145" style="stroke-miterlimit: 2; opacity: 1;"><g class="fills"/><g class="errorbars"/><g class="lines"><path class="js-line" d="M0,323.43L54.07,306.26L81.11,299.39L108.15,289.09L135.19,282.22L162.22,278.78L189.26,271.91L216.3,265.04L243.33,265.04L270.37,254.74L297.41,251.3L324.44,247.87L351.48,241L378.52,241L405.56,234.13L459.63,227.26L486.67,227.26L540.74,220.39L567.78,220.39L594.81,215.24L621.85,215.24L648.89,213.52L675.93,210.09L702.96,206.65L730,206.65" style="vector-effect: none; fill: none; stroke: rgb(187, 128, 255); stroke-opacity: 1; stroke-width: 2px; opacity: 1;"/></g><g class="points"/><g class="text"/></g></g></g><g class="overplot"/><path class="xlines-above crisp" d="M0,0" style="fill: none;"/><path class="ylines-above crisp" d="M0,0" style="fill: none;"/><g class="overlines-above"/><g class="xaxislayer-above"><g class="xtick"><text text-anchor="middle" x="0" y="533" transform="translate(134.07,0)" style="font-family: 'Open Sans', verdana, arial, sans-serif; font-size: 12px; fill: rgb(42, 63, 95); fill-opacity: 1; white-space: pre; opacity: 1;">2025</text></g><g class="xtick"><text text-anchor="middle" x="0" y="533" style="font-family: 'Open Sans', verdana, arial, sans-serif; font-size: 12px; fill: rgb(42, 63, 95); fill-opacity: 1; white-space: pre; opacity: 1;" transform="translate(269.26,0)">2030</text></g><g class="xtick"><text text-anchor="middle" x="0" y="533" style="font-family: 'Open Sans', verdana, arial, sans-serif; font-size: 12px; fill: rgb(42, 63, 95); fill-opacity: 1; white-space: pre; opacity: 1;" transform="translate(404.44,0)">2035</text></g><g class="xtick"><text text-anchor="middle" x="0" y="533" style="font-family: 'Open Sans', verdana, arial, sans-serif; font-size: 12px; fill: rgb(42, 63, 95); fill-opacity: 1; white-space: pre; opacity: 1;" transform="translate(539.63,0)">2040</text></g><g class="xtick"><text text-anchor="middle" x="0" y="533" style="font-family: 'Open Sans', verdana, arial, sans-serif; font-size: 12px; fill: rgb(42, 63, 95); fill-opacity: 1; white-space: pre; opacity: 1;" transform="translate(674.81,0)">2045</text></g><g class="xtick"><text text-anchor="middle" x="0" y="533" style="font-family: 'Open Sans', verdana, arial, sans-serif; font-size: 12px; fill: rgb(42, 63, 95); fill-opacity: 1; white-space: pre; opacity: 1;" transform="translate(810,0)">2050</text></g></g><g class="yaxislayer-above"><g class="ytick"><text text-anchor="end" x="79" y="4.199999999999999" transform="translate(0,495.57)" style="font-family: 'Open Sans', verdana, arial, sans-serif; font-size: 12px; fill: rgb(42, 63, 95); fill-opacity: 1; white-space: pre; opacity: 1;">14.4</text></g><g class="ytick"><text text-anchor="end" x="79" y="4.199999999999999" style="font-family: 'Open Sans', verdana, arial, sans-serif; font-size: 12px; fill: rgb(42, 63, 95); fill-opacity: 1; white-space: pre; opacity: 1;" transform="translate(0,426.87)">14.6</text></g><g class="ytick"><text text-anchor="end" x="79" y="4.199999999999999" style="font-family: 'Open Sans', verdana, arial, sans-serif; font-size: 12px; fill: rgb(42, 63, 95); fill-opacity: 1; white-space: pre; opacity: 1;" transform="translate(0,358.17)">14.8</text></g><g class="ytick"><text text-anchor="end" x="79" y="4.199999999999999" style="font-family: 'Open Sans', verdana, arial, sans-serif; font-size: 12px; fill: rgb(42, 63, 95); fill-opacity: 1; white-space: pre; opacity: 1;" transform="translate(0,289.48)">15</text></g><g class="ytick"><text text-anchor="end" x="79" y="4.199999999999999" style="font-family: 'Open Sans', verdana, arial, sans-serif; font-size: 12px; fill: rgb(42, 63, 95); fill-opacity: 1; white-space: pre; opacity: 1;" transform="translate(0,220.78)">15.2</text></g><g class="ytick"><text text-anchor="end" x="79" y="4.199999999999999" style="font-family: 'Open Sans', verdana, arial, sans-serif; font-size: 12px; fill: rgb(42, 63, 95); fill-opacity: 1; white-space: pre; opacity: 1;" transform="translate(0,152.07999999999998)">15.4</text></g></g><g class="overaxes-above"/></g></g><g class="polarlayer"/><g class="smithlayer"/><g class="ternarylayer"/><g class="geolayer"/><g class="funnelarealayer"/><g class="pielayer"/><g class="iciclelayer"/><g class="treemaplayer"/><g class="sunburstlayer"/><g class="glimages"/><defs id="topdefs-e20cfd"><g class="clips"/><clipPath id="legende20cfd"><rect width="163" height="48" x="0" y="0"/></clipPath></defs><g class="layer-above"><g class="imagelayer"/><g class="shapelayer"/></g><g class="infolayer"><g class="legend" pointer-events="all" transform="translate(824.6,100)"><rect class="bg" shape-rendering="crispEdges" style="stroke: rgb(68, 68, 68); stroke-opacity: 1; fill: rgb(255, 255, 255); fill-opacity: 1; stroke-width: 0px;" width="163" height="48" x="0" y="0"/><g class="scrollbox" transform="" clip-path="url(#legende20cfd)"><g class="groups"><g class="traces" transform="translate(0,14.5)" style="opacity: 1;"><text class="legendtext" text-anchor="start" x="40" y="4.680000000000001" style="font-family: 'Open Sans', verdana, arial, sans-serif; font-size: 12px; fill: rgb(42, 63, 95); fill-opacity: 1; white-space: pre;">Current Trends</text><g class="layers" style="opacity: 1;"><g class="legendfill"/><g class="legendlines"><path class="js-line" d="M5,0h30" style="fill: none; stroke: rgb(128, 221, 255); stroke-opacity: 1; stroke-width: 2px;"/></g><g class="legendsymbols"><g class="legendpoints"/></g></g><rect class="legendtoggle" x="0" y="-9.5" width="157.8125" height="19" style="fill: rgb(0, 0, 0); fill-opacity: 0;"/></g><g class="traces" transform="translate(0,33.5)" style="opacity: 1;"><text class="legendtext" text-anchor="start" x="40" y="4.680000000000001" style="font-family: 'Open Sans', verdana, arial, sans-serif; font-size: 12px; fill: rgb(42, 63, 95); fill-opacity: 1; white-space: pre;">Accelerated Actions</text><g class="layers" style="opacity: 1;"><g class="legendfill"/><g class="legendlines"><path class="js-line" d="M5,0h30" style="fill: none; stroke: rgb(187, 128, 255); stroke-opacity: 1; stroke-width: 2px;"/></g><g class="legendsymbols"><g class="legendpoints"/></g></g><rect class="legendtoggle" x="0" y="-9.5" width="157.8125" height="19" style="fill: rgb(0, 0, 0); fill-opacity: 0;"/></g></g></g><rect class="scrollbar" rx="20" ry="3" width="0" height="0" style="fill: rgb(128, 139, 164); fill-opacity: 1;" x="0" y="0"/></g><g class="g-gtitle"><text class="gtitle" x="50" y="50" text-anchor="start" dy="0em" style="font-family: 'Open Sans', verdana, arial, sans-serif; font-size: 17px; fill: rgb(42, 63, 95); opacity: 1; white-space: pre;"><tspan class="line" dy="0em" x="50" y="50">Accelerated Actions vs Current Trends Mean Global Temperature Projections</tspan><tspan class="line" dy="1.3em" x="50" y="50">2023-2050</tspan><tspan class="line" dy="2.6em" x="50" y="50"></tspan></text></g><g class="g-xtitle"><text class="xtitle" x="445" y="559.8" text-anchor="middle" style="font-family: 'Open Sans', verdana, arial, sans-serif; font-size: 14px; fill: rgb(42, 63, 95); opacity: 1; white-space: pre;">Year</text></g><g class="g-ytitle"><text class="ytitle" transform="rotate(-90,32.334375,310)" x="32.334375" y="310" text-anchor="middle" style="font-family: 'Open Sans', verdana, arial, sans-serif; font-size: 14px; fill: rgb(42, 63, 95); opacity: 1; white-space: pre;">Global Mean Temperature (°C)</text></g></g></svg>